<svg xmlns="http://www.w3.org/2000/svg" width="208" height="65" viewBox="0 0 208 65" fill="none"><path d="M11.8658 21.4693C12.1583 21.4558 12.3961 21.6951 12.3961 21.9887V43.6071C12.3961 43.9007 12.1583 44.14 11.8658 44.1265C5.86557 43.8488 1.08594 38.883 1.08594 32.7979C1.08594 26.7128 5.86557 21.747 11.8658 21.4693Z" fill="#A7A194"></path><path d="M26.1135 44.1265C25.8211 44.14 25.5832 43.9007 25.5832 43.6071V21.9887C25.5832 21.6951 25.8211 21.4558 26.1135 21.4693C32.1138 21.747 36.8934 26.7128 36.8934 32.7979C36.8934 38.883 32.1138 43.8488 26.1135 44.1265Z" fill="#A7A194"></path><path d="M13.3105 21.9887C13.3105 21.6951 13.5483 21.4558 13.8408 21.4693C19.841 21.747 24.6207 26.7128 24.6207 32.7979V43.6071C24.6207 43.9007 24.3829 44.14 24.0904 44.1265C18.0902 43.8488 13.3105 38.883 13.3105 32.7979V21.9887Z" fill="#A7A194"></path><path d="M37.8078 21.9887C37.8078 21.6951 38.0457 21.4558 38.3381 21.4693C44.3384 21.747 49.118 26.7128 49.118 32.7979V43.6071C49.118 43.9007 48.8806 44.1388 48.5878 44.1388H38.338C38.0452 44.1388 37.8078 43.9007 37.8078 43.6071V21.9887Z" fill="#A7A194"></path><path d="M71.557 24.3437C74.857 24.3437 77.657 26.0187 79.132 28.6937L77.182 29.4187C76.007 27.4937 73.957 26.2937 71.557 26.2937C69.682 26.2937 68.107 26.9437 66.832 28.2437C65.557 29.5187 64.932 31.1187 64.932 33.0437C64.932 34.9687 65.557 36.5687 66.832 37.8437C68.107 39.1187 69.682 39.7687 71.557 39.7687C73.957 39.7687 76.007 38.5687 77.182 36.6437L79.132 37.3687C77.657 40.0687 74.832 41.7438 71.557 41.7438C69.082 41.7438 67.007 40.9187 65.332 39.2687C63.682 37.5937 62.857 35.5187 62.857 33.0437C62.857 30.5687 63.682 28.4937 65.332 26.8437C67.007 25.1687 69.082 24.3437 71.557 24.3437ZM81.0652 41.4688H78.9402L86.3652 24.5937H87.9652L95.3902 41.4688H93.2902L91.5902 37.5937H82.7652L81.0652 41.4688ZM90.7652 35.7187L87.1902 27.4937L83.5902 35.7187H90.7652ZM96.2986 24.5937H98.3236V39.5937H107.524V41.4688H96.2986V24.5937ZM109.364 41.4688H107.239L114.664 24.5937H116.264L123.689 41.4688H121.589L119.889 37.5937H111.064L109.364 41.4688ZM119.064 35.7187L115.489 27.4937L111.889 35.7187H119.064ZM131.247 41.4688H124.597V24.5937H131.247C133.722 24.5937 135.772 25.3937 137.422 27.0187C139.097 28.6437 139.922 30.6437 139.922 33.0437C139.922 35.4187 139.097 37.4187 137.422 39.0437C135.772 40.6687 133.722 41.4688 131.247 41.4688ZM131.247 26.4687H126.622V39.5937H131.247C133.122 39.5937 134.672 38.9687 135.947 37.7187C137.222 36.4437 137.847 34.8937 137.847 33.0437C137.847 31.4687 137.372 30.1187 136.447 28.9437C135.522 27.7687 134.322 26.9937 132.847 26.6437L131.947 26.4937C131.797 26.4687 131.572 26.4687 131.247 26.4687ZM141.667 41.4688H139.542L146.967 24.5937H148.567L155.992 41.4688H153.892L152.192 37.5937H143.367L141.667 41.4688ZM151.367 35.7187L147.792 27.4937L144.192 35.7187H151.367ZM158.85 41.4688H156.9V24.5937H158.675L169.325 37.9687V24.5937H171.275V41.4688H169.5L158.85 28.0937V41.4688Z" fill="#A7A194"></path></svg>