<svg width="185" height="50" viewBox="0 0 185 50" fill="none" xmlns="http://www.w3.org/2000/svg">
<g clip-path="url(#clip0)">
<path d="M4.09147 35.7803V45.8762H0.549805V19.5699C3.24147 19.4277 4.94147 19.4277 5.50814 19.4277C13.1581 19.4277 16.9831 21.9873 16.9831 27.1063C16.9831 33.0785 13.5831 36.0647 6.92481 36.0647C6.35814 35.9225 5.50814 35.9225 4.09147 35.7803ZM4.09147 22.6982V32.5098C5.64981 32.652 6.35814 32.652 6.4998 32.652C10.8915 32.652 13.1581 30.8034 13.1581 27.3907C13.1581 24.1202 10.7498 22.556 6.07481 22.556C5.64981 22.556 4.94147 22.6982 4.09147 22.6982Z" fill="white"/>
<path d="M35.1164 36.6335H21.2331C21.2331 38.9086 21.7997 40.615 23.0747 41.8947C24.2081 43.0323 25.6247 43.4589 27.3247 43.4589C29.3081 43.4589 30.8664 42.8901 32.2831 41.7525L33.6997 44.1699C33.1331 44.7386 32.4247 45.1652 31.2914 45.5918C29.8747 46.1606 28.4581 46.3028 26.7581 46.3028C24.3497 46.3028 22.2247 45.4496 20.5247 43.8855C18.6831 42.0369 17.6914 39.6196 17.6914 36.4913C17.6914 33.363 18.6831 30.8034 20.5247 28.8127C22.2247 27.1063 24.3497 26.2532 26.6164 26.2532C29.3081 26.2532 31.5747 26.9642 33.1331 28.5283C34.6914 29.9503 35.3997 31.941 35.3997 34.5005C35.3997 35.2115 35.2581 35.9225 35.1164 36.6335ZM26.7581 29.0971C25.1997 29.0971 23.9247 29.5237 22.9331 30.519C21.9414 31.5144 21.3747 32.652 21.2331 34.0739H31.9997C31.9997 32.652 31.5747 31.5144 30.7247 30.6612C29.7331 29.6659 28.4581 29.0971 26.7581 29.0971Z" fill="white"/>
<path d="M40.0748 29.3814H37.8081V26.6797H40.0748V22.6982L43.4748 21.4185V26.8219H48.7164V29.5236H43.4748V39.0507C43.4748 40.6149 43.7581 41.7525 44.3248 42.4634C44.8914 43.1744 45.7414 43.4588 47.0164 43.4588C47.8664 43.4588 48.8581 43.1744 49.7081 42.7478L50.2748 45.734C48.8581 46.1605 47.2998 46.3027 45.5998 46.3027C44.0414 46.3027 42.7664 45.734 41.7748 44.5964C40.7831 43.4588 40.2164 42.0369 40.2164 40.3305V29.3814H40.0748Z" fill="white"/>
<path d="M63.5916 29.9503C62.8833 29.3815 62.1749 29.0971 61.3249 29.0971C60.0499 29.0971 59.0583 29.6659 58.2083 30.8034C57.3583 31.941 56.7916 33.2208 56.7916 34.7849V45.8762H53.3916V26.6798H56.7916V29.6659C58.0666 27.3907 59.9083 26.2532 62.3166 26.2532C62.8833 26.2532 63.7333 26.3954 65.0083 26.5376L63.5916 29.9503Z" fill="white"/>
<path d="M66 36.2069C66 33.2208 66.85 30.8034 68.4083 28.9549C69.9667 27.1063 72.0917 26.2532 74.7833 26.2532C77.475 26.2532 79.7417 27.1063 81.1583 28.9549C82.7167 30.6612 83.425 33.2208 83.425 36.2069C83.425 39.3352 82.575 41.7525 81.0167 43.6011C79.4583 45.4496 77.3333 46.3028 74.6417 46.3028C71.95 46.3028 69.825 45.4496 68.2667 43.6011C66.85 41.7525 66 39.3352 66 36.2069ZM69.6833 36.2069C69.6833 41.0415 71.3833 43.4589 74.7833 43.4589C76.3417 43.4589 77.6167 42.7479 78.4667 41.4681C79.3167 40.1884 79.8833 38.482 79.8833 36.2069C79.8833 31.3722 78.1833 29.0971 74.7833 29.0971C73.225 29.0971 71.95 29.6659 71.1 30.9456C70.1083 32.2254 69.6833 34.0739 69.6833 36.2069Z" fill="white"/>
<path d="M97.3081 21.8451C96.5997 21.5607 95.8914 21.4185 95.3247 21.4185C94.3331 21.4185 93.4831 21.8451 92.7747 22.5561C92.0664 23.4093 91.7831 24.2624 91.7831 25.5422C91.7831 25.8266 91.7831 26.2532 91.9247 26.5376H95.7497V29.3815H91.9247V45.734H88.5247V29.5237H85.6914V26.6798H88.5247C88.5247 24.2624 89.0914 22.2717 90.3664 20.8497C91.6414 19.4278 93.1997 18.7168 95.1831 18.7168C96.1747 18.7168 97.3081 18.859 98.4414 19.2856L97.3081 21.8451Z" fill="white"/>
<path d="M111.192 43.7433C109.775 45.4496 107.65 46.3028 104.958 46.3028C103.4 46.3028 102.125 45.734 100.992 44.7386C99.8582 43.6011 99.2915 42.3213 99.2915 40.615C99.2915 38.6242 100.142 37.0601 101.842 35.6381C103.542 34.3583 105.808 33.6474 108.358 33.6474C109.067 33.6474 109.917 33.7896 110.767 34.0739C110.767 30.9456 109.35 29.3815 106.517 29.3815C104.392 29.3815 102.692 29.9503 101.558 31.0878L100.142 28.2439C100.708 27.6751 101.7 27.2485 102.833 26.822C103.967 26.3954 105.1 26.2532 106.092 26.2532C108.925 26.2532 110.908 26.822 112.183 28.1017C113.458 29.3815 114.025 31.3722 114.025 34.2161V41.1837C114.025 42.8901 114.45 44.0277 115.583 44.5964V46.3028C114.167 46.3028 113.175 46.1606 112.467 45.734C112.042 45.3074 111.475 44.5964 111.192 43.7433ZM110.908 36.4913C109.775 36.2069 109.067 36.0647 108.642 36.0647C106.942 36.0647 105.525 36.4913 104.392 37.3444C103.258 38.1976 102.692 39.193 102.692 40.4728C102.692 42.4635 103.825 43.4589 106.233 43.4589C107.933 43.4589 109.492 42.6057 110.908 41.0415V36.4913Z" fill="white"/>
<path d="M134.142 28.244L132.442 30.5192C132.017 30.2348 131.45 29.8082 130.6 29.5238C129.75 29.2394 128.9 29.0972 128.05 29.0972C126.208 29.0972 124.65 29.8082 123.658 31.0879C122.525 32.3677 121.958 34.2163 121.958 36.4914C121.958 38.7665 122.525 40.4729 123.658 41.6104C124.792 42.748 126.35 43.459 128.333 43.459C129.892 43.459 131.45 42.8902 133.008 41.6104L134.283 44.4544C132.442 45.5919 130.175 46.1607 127.483 46.1607C124.792 46.1607 122.667 45.3075 120.967 43.459C119.267 41.7526 118.417 39.3353 118.417 36.3492C118.417 33.2209 119.267 30.8035 121.108 28.955C122.95 27.1065 125.358 26.1111 128.475 26.1111C129.467 26.1111 130.6 26.2533 131.733 26.6799C132.725 27.3908 133.575 27.6752 134.142 28.244Z" fill="white"/>
<path d="M167.858 1.79547C167.858 11.8914 184.717 20.9919 184.717 34.0739C184.717 42.6057 177.917 49.1467 168.283 49.7155C168.283 49.7155 167.433 49.7155 166.725 49.7155C166.017 49.7155 165.167 49.7155 165.167 49.7155C155.817 49.0045 148.733 42.6057 148.733 34.0739C148.733 20.9919 165.733 11.8914 165.733 1.79547C165.875 0.657898 167.858 0.515702 167.858 1.79547Z" fill="#8E744A"/>
<path d="M165.591 1.79553C165.591 6.48799 161.908 10.8961 157.941 15.5885C153.408 21.1342 148.591 26.9642 148.591 34.074C148.591 42.4635 155.533 49.1468 165.166 49.8577L166.725 49.9999L168.283 49.8577C178.058 49.2889 184.858 42.7479 184.858 34.074C184.858 26.9642 180.041 21.2764 175.508 15.5885C171.541 10.8961 167.858 6.34579 167.858 1.79553C167.858 1.36894 167.716 1.08455 167.433 0.942351C167.15 0.800155 166.866 0.657959 166.583 0.657959C166.3 0.657959 165.591 1.08455 165.591 1.79553ZM165.308 49.5733C155.958 48.8624 149.016 42.4635 149.016 34.2162C149.016 27.2486 153.691 21.5608 158.225 16.0151C162.191 11.1805 165.875 6.63019 165.875 1.93772C165.875 1.36894 166.3 1.22674 166.725 1.22674C166.866 1.22674 167.15 1.22674 167.291 1.36894C167.433 1.51113 167.575 1.65333 167.575 1.93772C167.575 6.77238 171.258 11.3226 175.225 16.0151C179.758 21.5608 184.433 27.2486 184.433 34.2162C184.433 42.7479 177.775 49.1468 168.283 49.5733H166.725H165.308Z" fill="#020203"/>
<path d="M163.183 19.5701C164.175 19.5701 166.3 19.5701 169.275 19.5701C170.55 19.5701 171.966 19.5701 173.241 19.7123C175.933 19.9967 178.341 21.8452 179.475 24.2625C180.608 26.6799 180.183 30.377 178.766 32.3677C176.925 35.0694 174.941 35.9226 172.533 36.3492C170.833 36.6336 169.416 36.4914 167.716 36.4914C166.725 41.4682 165.733 46.0185 165.733 46.0185H158.225L162.616 26.2533H169.558L168.566 31.9411C170.55 31.9411 171.966 30.377 172.108 28.3862C172.108 27.3908 172.108 25.9689 171.116 25.4001C170.408 24.9735 167.291 25.1157 166.583 25.1157H163.183C161.483 25.1157 160.491 24.4047 159.641 22.9828C159.075 21.9874 158.366 20.8498 158.083 19.5701C159.641 19.7123 162.475 19.5701 163.183 19.5701Z" fill="white"/>
<path d="M163.183 19.4277H159.217H157.658L157.8 19.7121C158.083 20.9919 158.792 22.2717 159.358 23.1248C160.208 24.4046 161.2 25.2578 163.042 25.2578H166.442H166.867C167.858 25.2578 170.408 25.2578 170.833 25.5422C171.4 25.8265 171.683 26.6797 171.683 27.8173C171.683 27.9595 171.683 28.1017 171.683 28.3861C171.542 30.3768 170.408 31.6566 168.708 31.7988C168.708 31.3722 169.7 26.2531 169.7 26.2531H162.192L157.8 46.445H165.733C165.733 46.445 167.575 37.3444 167.717 36.9178H168.567C169.983 36.9178 171.117 36.9178 172.392 36.7756C175.225 36.349 177.067 35.2115 178.767 32.652C180.325 30.3768 180.608 26.6797 179.475 24.2624C178.2 21.7029 175.65 19.8543 172.958 19.5699C171.683 19.4277 170.267 19.4277 168.992 19.4277H163.892H163.183ZM159.217 19.8543H164.033H169.133C170.408 19.8543 171.825 19.8543 173.1 19.9965C175.65 20.2809 178.058 21.9873 179.192 24.4046C180.325 26.6797 180.042 30.2346 178.483 32.3676C176.783 34.7849 175.083 35.9225 172.392 36.349C171.117 36.4912 169.983 36.4912 168.567 36.4912H167.292V36.6334C167.292 36.6334 165.45 45.5918 165.308 46.0184C165.025 46.0184 158.792 46.0184 158.225 46.0184C158.367 45.4496 162.475 27.1063 162.475 26.8219C162.758 26.8219 168.567 26.8219 169.133 26.8219C168.992 27.2485 168.142 32.5098 168.142 32.5098H168.425C170.408 32.5098 171.967 30.9456 172.108 28.6705C172.25 26.9641 171.825 25.9687 171.117 25.4C170.55 25.1156 168.708 25.1156 166.867 25.1156H166.442H163.042C161.342 25.1156 160.492 24.2624 159.642 23.1248C159.075 22.2717 158.508 21.2763 158.225 20.1387H159.217V19.8543Z" fill="#020203"/>
</g>
<defs>
<clipPath id="clip0">
<rect width="184.45" height="49.342" fill="white" transform="translate(0.549805 0.657959)"/>
</clipPath>
</defs>
</svg>
