<svg xmlns="http://www.w3.org/2000/svg" height="249.77" viewBox="0 0 250 249.77098" width="250">
 <g>
  <path d="m107.17 40.365c-1.51-0.004-3 0.115-3.96 0.381-1.8 0.496-4.062 1.57-5.126 2.436-0.277 0.225-1.025 0.395-1.662 0.377-1.338-0.038-3.047 1.46-4.031 3.535-0.346 0.727-1.007 1.664-1.471 2.084-0.464 0.419-1.278 1.505-1.809 2.41-0.573 0.978-1.171 1.564-1.476 1.447-0.713-0.273-3.141 2.668-3.676 4.455-0.406 1.355-0.608 1.515-2.484 1.961-2.043 0.485-3.866 1.755-3.866 2.694 0 0.273 0.366 0.753 0.813 1.066 0.987 0.692 0.412 1.169-0.986 0.818-1.189-0.298-1.704 0.586-1.112 1.912 0.237 0.53 0.249 1.347 0.033 2.129-0.513 1.858 0.283 4.286 2.073 6.319 0.842 0.957 1.533 1.964 1.533 2.238 0 0.569 2.196 2.527 2.834 2.527 0.232 0 1.032 0.712 1.777 1.582s2.035 1.929 2.867 2.354c0.833 0.424 1.69 1.101 1.905 1.502 0.873 1.631 3.377 1.955 6.189 0.801 1.161-0.477 1.339-0.444 2.254 0.416 0.547 0.513 0.994 1.14 0.994 1.392 0 0.253 0.339 0.765 0.752 1.139 1.495 1.354 3.125-0.451 3.945-4.383 0.73-3.522 1.95-3.097 1.97 0.688 0 1.794 1.1 3.527 3.78 6.001 4.6 4.246 5.71 4.653 6.63 2.442 1.15-2.759 0.43-5.235-1.69-5.783-0.7-0.182-1.27-0.576-1.27-0.875 0-0.3-0.1-0.812-0.23-1.139-0.33-0.864 1.93-1.944 3.4-1.621 0.63 0.139 1.33 0.584 1.54 0.988 0.22 0.404 1.28 1.888 2.36 3.299 2.61 3.399 2.78 4.373 1.19 6.77l-1.24 1.877-21.647 0.195-21.644 0.197 0.037 14.504c0.028 11.13 0.196 15.84 0.717 20.2 0.714 5.97 1.539 11.28 2.164 13.92 2.302 9.69 3.496 13.68 5.982 19.99 6.25 15.87 18.131 30.51 32.521 40.09 2.13 1.42 3.8 2.66 3.71 2.75-0.28 0.27-4.76-0.99-6.77-1.91-1.27-0.58-3.37-2.35-6.35-5.35-2.96-2.98-5.1-4.78-6.35-5.36-1.53-0.71-2.27-1.44-3.851-3.78-1.074-1.6-2.847-3.78-3.941-4.85s-1.99-2.31-1.992-2.75c-0.012-2.17-2.136-7.12-3.838-8.94-1.226-1.3-2.028-1.38-2.076-0.19-0.021 0.5-0.33-0.05-0.719-1.28-0.818-2.57-2.107-5.16-2.9-5.82-0.459-0.38-0.703-0.35-1.205 0.15-0.579 0.58-0.63 0.51-0.631-0.87-0.003-3.04-1.483-10.56-2.338-11.88-0.315-0.49-0.52-0.51-1.178-0.1-0.777 0.48-0.795 0.41-0.809-2.94-0.02-5.1-1.212-9.9-2.457-9.9-0.265 0-0.822 0.92-1.236 2.05-0.929 2.54-1.244 1.64-0.64-1.82 0.751-4.32 0.244-9.05-1.022-9.53-0.634-0.24-2.238 1.14-3.193 2.75l-0.651 1.1-0.595-2.47c-0.552-2.3-0.544-2.61 0.115-4.39 1.752-4.72 2.754-11.39 2.004-13.34-0.399-1.04-1.883-0.7-3.692 0.85-1.233 1.05-1.63 1.24-1.406 0.68 2.19-5.5 2.268-12.27 0.139-12.1-0.532 0.04-0.63-0.31-0.561-2.03 0.068-1.67 0.326-2.37 1.338-3.63 2.006-2.499 3.752-6.234 3.459-7.402-0.22-0.875-0.403-0.971-1.443-0.763l-1.192 0.238 1.535-1.859c4.106-4.974 5.901-9.112 4.231-9.752-0.479-0.184-0.416-0.538 0.381-2.11 1.092-2.155 2.547-7.114 2.547-8.681 0-2.63-1.003-2.966-2.787-0.934-0.658 0.749-3.607 2.98-6.555 4.959-2.949 1.98-6.181 4.279-7.182 5.109-1 0.831-1.905 1.51-2.011 1.51-0.107 0-0.286-0.354-0.399-0.785-0.711-2.718-6.178 2.145-9.256 8.234-1.035 2.049-2.495 4.872-3.244 6.274-1.457 2.727-2.483 5.702-3.053 8.842-0.194 1.07-0.719 3.25-1.166 4.86-0.447 1.6-0.814 3.72-0.814 4.7 0 0.99-0.282 3.12-0.627 4.73-0.75 3.52-0.547 7.83 0.57 12.16 0.418 1.62 0.88 4.7 1.026 6.86 0.387 5.72 1.625 11.06 3.543 15.27 0.498 1.09 1.034 2.86 1.189 3.94 0.324 2.25 1.682 6.08 3.104 8.76 0.536 1 1.277 2.54 1.648 3.4 1.068 2.48 3.6 6.09 5.914 8.42 1.172 1.17 2.4 2.67 2.732 3.33 1.315 2.59 4.56 6.07 7.37 7.9 0.862 0.56 2.009 1.73 2.548 2.6 1.161 1.87 3.721 4 6.717 5.56 1.19 0.63 2.53 1.7 2.979 2.38 1.373 2.1 7.063 5.29 9.418 5.29 0.3 0 1.284 0.49 2.185 1.09 1.914 1.28 2.766 1.69 5.951 2.86 2.03 0.76 3.509 0.91 10.787 1.17 5.68 0.2 8.9 0.47 9.89 0.85 1.93 0.73 2.24 1.09 0.95 1.09-2.89 0-13.63 2.83-14.43 3.8-0.39 0.47-0.6 0.39-1.3-0.49-1.441-1.81-4.131-1.11-4.131 1.07 0 0.75 1.447 2.29 2.156 2.29 0.242 0 0.781-0.26 1.2-0.58 1.045-0.79 1.225-0.74 1.505 0.38 0.14 0.53 0.7 1.27 1.26 1.63 0.85 0.56 1.2 0.59 2.33 0.18 1.11-0.4 1.47-0.37 2.27 0.15 1.3 0.85 2.96 0.11 3.28-1.46 0.23-1.16 1.38-2.06 2.19-1.73 0.26 0.1 0.17 0.2-0.2 0.22-1.64 0.08-1.78 3.11-0.18 3.88 1.14 0.55 1.14 0.55 2.14-0.15 1.23-0.86 1.17-2.7-0.12-3.55-0.55-0.35-0.92-0.72-0.84-0.81 0.28-0.27 5.42-1.65 8.95-2.4l3.38-0.72 4.12 0.92c2.27 0.51 5.58 1.4 7.36 1.99 2.97 0.98 3.24 1.16 3.35 2.19 0.2 1.99 2.21 2.84 3.46 1.46 0.67-0.74 0.7-0.74 2.03 0.04 1.27 0.75 1.4 0.76 2.33 0.15 0.55-0.36 1.09-1.17 1.22-1.81 0.26-1.29 0.59-1.44 1.31-0.57 0.76 0.91 2.25 0.72 2.98-0.39 0.84-1.29 0.45-2.86-0.8-3.17-1.59-0.4-2.35-0.03-2.8 1.36-0.29 0.88-0.51 1.13-0.65 0.74-0.36-0.93-3.28-2.09-8.53-3.37-2.7-0.66-5.34-1.26-5.88-1.34-0.91-0.13-0.87-0.19 0.59-0.87 1.29-0.59 3.06-0.77 9.99-1.02 9.79-0.34 12.16-0.9 16.67-3.91 0.86-0.58 2.27-1.18 3.14-1.34 2.88-0.52 6.33-2.47 8.12-4.57 0.92-1.09 2.48-2.39 3.47-2.9 2.7-1.39 5.72-3.94 6.7-5.64 0.48-0.83 1.67-2.01 2.64-2.63 2.46-1.55 5.55-4.8 6.85-7.19 0.61-1.11 2-2.85 3.09-3.87 2.09-1.94 5.29-6.48 6.15-8.74 0.28-0.74 1.2-2.75 2.05-4.48 1.53-3.12 2.67-6.66 2.68-8.32 0-0.48 0.46-1.86 1.01-3.07 2.16-4.72 3.67-11.67 3.69-16.93 0.01-1.13 0.4-3.43 0.87-5.1 1.53-5.46 1.08-13.76-1.3-23.82-1.56-6.578-2.82-10.19-4.53-13.019-0.76-1.253-1.73-3.155-2.16-4.229-1.18-2.988-4.01-6.666-6.5-8.443-2.03-1.457-2.28-1.542-2.72-0.94-0.27 0.365-0.54 0.848-0.62 1.075-0.08 0.226-1.36-0.567-2.86-1.764-1.49-1.197-4.86-3.602-7.47-5.344s-5.27-3.787-5.89-4.545c-0.84-1.021-1.29-1.285-1.72-1.019-1.23 0.765-0.07 7.511 1.91 11.05 0.64 1.16 0.65 1.371 0.12 2.309-0.54 0.935-0.53 1.212 0.12 2.908 0.39 1.031 1.83 3.349 3.19 5.153 2.09 2.774 2.33 3.245 1.55 3.048-0.69-0.173-1.05-0.019-1.38 0.602-0.36 0.682-0.26 1.237 0.57 3.057 0.56 1.223 1.72 3.129 2.58 4.231 1.34 1.75 1.55 2.29 1.55 4.03 0 1.58-0.12 1.96-0.56 1.79-0.79-0.3-1.8 1.8-1.8 3.73 0 1.58 0.88 5.86 1.58 7.7 0.43 1.13 0.28 1.09-1.81-0.48-1.64-1.23-2.82-1.19-3.14 0.11-0.46 1.82 0.24 6.72 1.55 10.84 0.91 2.88 1.2 4.38 1.01 5.21-0.16 0.64-0.4 1.7-0.55 2.34-0.25 1.12-0.3 1.14-0.82 0.43-1.22-1.67-2.56-2.97-3.05-2.97-0.29 0-0.73 0.44-0.98 0.99-0.56 1.23-0.59 7.95-0.06 10.78 0.22 1.14 0.33 2.15 0.24 2.23-0.09 0.09-0.57-0.91-1.08-2.22-0.5-1.3-1.12-2.37-1.37-2.37-1.28 0-2.69 6.39-2.42 11.02 0.14 2.55 0.12 2.64-0.56 2.02-0.62-0.56-0.79-0.57-1.27-0.08-0.75 0.75-1.75 4.68-2 7.82-0.37 4.55-0.53 5.21-1.17 4.68-0.44-0.36-0.7-0.35-1.18 0.05-0.8 0.66-2.35 3.73-2.7 5.36-0.23 1.09-0.41 1.24-1.16 1.05-1.65-0.41-4.04 3.28-5.32 8.2-0.64 2.5-0.99 3.08-3.08 5.22-1.3 1.32-2.93 3.41-3.62 4.64-0.78 1.38-1.65 2.37-2.28 2.61-2.19 0.83-4.65 2.77-6.91 5.45-1.29 1.53-3.17 3.4-4.17 4.14-1.92 1.42-5.75 3.01-8.37 3.47-1.46 0.26-1.28 0.08 2.54-2.55 21.17-14.53 33.3-33.8 38.86-61.73 2.24-11.24 3.6-31.88 2.82-42.74l-0.31-4.314-1.08-0.125c-1.01-0.116-1.08-0.242-1.08-2.033 0-1.05-0.16-2.343-0.36-2.875s-0.6-3.81-0.87-7.285l-0.5-6.319-1.33-1.408c-0.73-0.774-2-2.845-2.84-4.601-1.29-2.744-1.58-3.843-1.99-7.791-0.27-2.529-0.37-4.716-0.23-4.86 0.15-0.144 0.52-0.052 0.82 0.203 1.07 0.887 4.01 7.766 4.46 10.43 0.33 1.996 1.8 3.518 4.25 4.424 1.25 0.457 2.39 0.753 2.54 0.658 0.32-0.198-0.43-2.576-1.06-3.369-0.24-0.295-0.73-1.124-1.1-1.842-0.38-0.743-1.2-1.531-1.91-1.83-1.02-0.43-1.41-0.978-2.16-3.008-0.5-1.365-1.19-3.142-1.53-3.949-0.63-1.513-3.32-4.448-4.4-4.812-0.33-0.114-1.04-0.906-1.56-1.758-0.53-0.853-1.5-1.802-2.16-2.112-2.14-1.003-7.53-2.094-17.86-3.613-0.96-0.142-3.26-0.835-5.09-1.541-1.84-0.706-4.62-1.478-6.18-1.717-1.56-0.238-3.5-0.774-4.31-1.189-0.82-0.416-2.32-0.877-3.34-1.024-1.03-0.147-1.87-0.406-1.87-0.576 0-0.606-2.51-1.17-5.21-1.17-2.07 0-2.85-0.154-3.2-0.633-0.41-0.555-3.02-0.899-5.55-0.906zm0.22 1.932c2.89 0 4.15 0.149 4.54 0.545 0.33 0.321 1.89 0.662 3.8 0.826 2.26 0.194 3.49 0.491 4.03 0.977 0.48 0.427 1.63 0.764 2.96 0.867 1.35 0.104 2.61 0.479 3.33 0.988 0.73 0.513 2.1 0.917 3.66 1.078 1.38 0.142 4.11 0.838 6.08 1.547 3.43 1.238 5.16 1.628 11.61 2.611 9.79 1.492 12.56 2.442 13.39 4.598 0.22 0.582 0.73 3.866 1.14 7.297 0.66 5.691 0.87 6.523 2.28 9.465 0.85 1.773 2.15 3.906 2.9 4.74l1.35 1.516 0.45 6.076c0.25 3.342 0.57 6.563 0.7 7.156 0.18 0.844 0.09 1.078-0.42 1.078-1.43 0-2.07-0.742-2.33-2.682-0.63-4.745-4.5-9.769-8.74-11.355-2.77-1.035-4.98-3.148-6.58-6.316-0.56-1.098-1.18-1.997-1.4-1.997-0.21 0-1.02 0.607-1.81 1.348-2.98 2.813-8.9 5.193-13.87 5.578l-2.94 0.227-1.24-1.557c-1.25-1.562-2.15-4.42-1.39-4.42 0.73 0 0.89-1.278 0.28-2.211-0.76-1.166-1.93-1.269-1.57-0.138 0.17 0.525 0.05 0.865-0.37 1.025-0.49 0.186-0.59 0.668-0.48 2.145 0.08 1.047 0.38 2.175 0.65 2.503 0.39 0.472 0.4 0.836 0.02 1.733-0.38 0.927-0.36 1.349 0.13 2.285 0.54 1.052 0.53 1.241-0.15 2.275-0.49 0.75-0.61 1.282-0.36 1.583 0.24 0.29 0.21 1.352-0.07 2.958-0.24 1.379-0.46 3.439-0.49 4.579-0.04 1.367-0.25 2.199-0.64 2.445-1.22 0.775-2.19 0.144-1.91-1.242 0.21-1.027-0.5-2.811-1.99-5.01-0.83-1.222-1.74-3.008-2.01-3.969-0.27-0.96-1.11-2.4-1.86-3.199-0.76-0.799-1.65-2.298-2-3.332-0.52-1.568-0.84-1.952-1.95-2.311-0.76-0.246-1.56-0.875-1.88-1.47-0.3-0.573-0.72-1.041-0.93-1.041-0.22 0-0.57-0.479-0.8-1.065-0.3-0.806-0.48-0.933-0.73-0.525-0.36 0.581-0.16 1.438 0.55 2.375 0.25 0.323 0.68 1.054 0.96 1.623 0.29 0.569 0.94 1.225 1.45 1.457 0.51 0.234 1.04 0.908 1.18 1.514 0.14 0.6 0.51 1.503 0.82 2.007 0.76 1.212 0.56 1.319-1.02 0.555-1.22-0.594-1.35-0.59-1.81 0.041-0.46 0.637-0.59 0.627-2.11-0.162-0.88-0.462-1.61-0.995-1.61-1.184 0-0.311-2.01-1.539-2.53-1.539-0.11 0-0.21 0.31-0.21 0.688 0 0.555-0.41 0.704-2.11 0.787-1.83 0.088-2.19-0.018-2.7-0.801-0.32-0.496-0.655-1.232-0.734-1.637-0.177-0.915-1.123-1.287-1.123-0.441 0 1.008-0.68 0.721-2.25-0.947-0.811-0.862-1.695-1.568-1.965-1.569-0.649 0-0.625 0.158 0.295 1.961 0.432 0.846 0.783 1.97 0.783 2.5s0.108 1.243 0.239 1.584c0.26 0.678 1.33 0.862 1.33 0.229 0-0.878 1.697-0.301 3.175 1.08 1.1 1.022 1.5 1.673 1.33 2.131-0.14 0.365-0.5 0.565-0.81 0.447-0.67-0.258-0.69-0.068-0.12 1.199 0.25 0.536 0.34 1.265 0.2 1.621-0.2 0.51-0.61 0.2-1.941-1.445-0.931-1.151-1.807-2.402-1.947-2.779-0.393-1.059-1.199-0.799-1.848 0.594-1.113 2.386-3.278 2.857-4.467 0.972-0.493-0.781 0.672-2.252 1.783-2.252 0.833 0 0.931-0.421 0.254-1.097-0.825-0.826-1.122-0.708-3.711 1.466-0.809 0.68-3.052-1.172-3.195-2.636-0.1-1.032-0.292-1.262-1.053-1.262-1.598 0-2.934-0.725-3.412-1.854-0.253-0.597-1.057-1.726-1.789-2.507-2.235-2.386-2.139-5.96 0.209-7.807 1.019-0.801 2.834-1.053 2.834-0.393 0 0.209 0.575 0.988 1.275 1.731 0.701 0.743 1.502 1.63 1.78 1.973 0.61 0.752 2.76 0.798 3.709 0.078 0.863-0.656 0.933-3.724 0.119-5.297-0.691-1.337-3.165-3.569-3.955-3.569s-0.707-0.68 0.332-2.711c0.865-1.691 1.309-2.104 2.734-2.546 0.385-0.12 1.004-0.791 1.373-1.491 0.37-0.699 1.223-1.805 1.897-2.457 0.673-0.652 1.531-1.803 1.908-2.558 1.017-2.039 1.771-2.744 2.926-2.744 0.57 0 1.205-0.161 1.41-0.358s1.453-0.902 2.775-1.568c2.21-1.117 2.71-1.211 6.4-1.211zm-0.91 1.971c-0.89 0.021-1.85 0.181-2.13 0.461-0.26 0.258-0.47 0.719-0.47 1.025 0 0.348 0.26 0.477 0.69 0.346 0.37-0.116 1.25-0.386 1.93-0.6 1.02-0.318 1.21-0.288 1.04 0.164-0.28 0.72 1 0.714 1.95-0.01 0.79-0.598 0.25-1.231-0.73-0.855-0.31 0.12-0.57 0.047-0.57-0.162 0-0.274-0.82-0.39-1.71-0.369zm5.83 0.38c-0.67 0-1.11 0.653-0.78 1.178 0.16 0.261 0.5 0.255 1.01-0.019 0.82-0.439 0.68-1.159-0.23-1.159zm6.57 1.329c-0.93 0.064-1.41 0.512-1.14 1.201 0.19 0.508 0.56 0.593 1.72 0.4 2.98-0.496 3.17-1.077 0.5-1.535-0.41-0.069-0.77-0.088-1.08-0.066zm-20.097 0.24c-0.527 0-0.783 0.262-0.783 0.799 0 0.676 0.118 0.734 0.783 0.379 0.432-0.231 0.785-0.591 0.785-0.799s-0.353-0.379-0.785-0.379zm25.557 1.215c-0.08-0.007-0.17 0.001-0.29 0.023-0.38 0.075-0.77 0.372-0.87 0.662-0.11 0.338 0.08 0.479 0.52 0.393 0.39-0.075 0.78-0.374 0.88-0.664 0.08-0.253 0-0.395-0.24-0.414zm4.16 0.771c-0.1-0.015-0.23 0.124-0.44 0.408-0.25 0.346-0.86 0.755-1.34 0.909-1.2 0.381-1.1 1.089 0.3 2.125 1.26 0.935 1.51 1.808 0.61 2.152-0.3 0.118-0.61 0.612-0.68 1.098-0.09 0.62-0.51 0.98-1.41 1.21-1.28 0.332-1.61 0.832-0.86 1.297 0.22 0.139 0.3 0.577 0.18 0.973-0.16 0.501 0.01 0.796 0.57 0.973 0.44 0.139 1 0.623 1.24 1.074 0.4 0.751 0.47 0.765 0.82 0.15 0.24-0.437 0.22-1.096-0.05-1.89-0.24-0.671-0.38-1.256-0.33-1.299 0.06-0.044 0.5-0.288 0.99-0.541 0.65-0.341 0.83-0.69 0.66-1.344-0.15-0.598 0.04-1.12 0.59-1.613 1.04-0.947 1.01-1.562-0.12-2.451-0.7-0.552-0.82-0.872-0.52-1.348 0.21-0.343 0.26-0.959 0.1-1.365-0.12-0.334-0.21-0.503-0.31-0.518zm-30.217 1.936c-0.774 0-2.284 1.186-2.031 1.595 0.338 0.548 1.012 0.443 1.814-0.283 0.837-0.757 0.929-1.312 0.217-1.312zm-3.207 2.353c-1.233 0-2.959 1.054-2.959 1.809 0 0.298-0.177 0.543-0.396 0.543-0.561 0-1.965 2.412-1.676 2.879 0.131 0.212 0.642-0.084 1.137-0.659 0.494-0.574 1.009-1.044 1.144-1.044s1.039-0.794 2.01-1.764c1.714-1.714 1.736-1.764 0.74-1.764zm53.834 1.25c-1.42-0.061-1.57 0.478-0.03 1.039 1.39 0.511 2.73 0.551 3.02 0.09 0.32-0.519-0.25-0.783-2.31-1.064-0.25-0.035-0.48-0.056-0.68-0.065zm7.15 0.709c-0.36-0.02-0.73 0.036-1.1 0.176-0.54 0.208-0.36 0.43 0.89 1.121 1.17 0.647 1.83 1.431 2.67 3.158 1.35 2.788 2.03 2.49 1.24-0.541-0.61-2.307-2.11-3.825-3.7-3.914zm-40.92 0.543c-0.11 0.003-0.23 0.024-0.38 0.068-1.16 0.358-1.21 0.425-0.93 1.155 0.19 0.492 0.4 0.534 1.02 0.199 0.99-0.53 1.06-1.439 0.29-1.422zm-12.91 0.682c-0.14-0.01-0.34 0.142-0.62 0.424-0.6 0.593-0.6 1.563-0.02 2.843 0.26 0.577 0.78 0.998 1.23 0.998 0.64 0 0.68-0.099 0.27-0.591-0.27-0.325-0.5-1.296-0.53-2.157-0.02-1.039-0.1-1.501-0.33-1.517zm-8.48 4.203c-1.734 0.051-3.108 0.72-3.426 1.723-0.35 1.104-0.033 1.195 1.545 0.443 0.779-0.371 1.502-0.59 1.608-0.484 0.451 0.451 0.367 4.798-0.096 4.953-0.264 0.088-0.479 0.409-0.479 0.715 0 0.738 1.728 0.719 2.346-0.026 0.909-1.095 0.29-7.233-0.736-7.307-0.261-0.018-0.514-0.024-0.762-0.017zm8.51 0.887c-0.19 0.071-0.34 0.505-0.34 1.265 0 0.992 0.24 1.434 0.98 1.832 0.54 0.289 0.98 0.765 0.98 1.059s0.4 0.694 0.88 0.889c1.14 0.457 1.17 0.458 1.85 0.029 0.46-0.291 0.36-0.448-0.53-0.783-0.6-0.231-1.19-0.764-1.3-1.186-0.11-0.421-0.53-0.873-0.94-1.002s-0.85-0.665-0.98-1.189c-0.17-0.695-0.41-0.986-0.6-0.914zm-19.748 0.38c3.298-0.043 5.749 2.046 5.838 4.973 0.032 1.082-0.129 1.477-0.645 1.582-0.697 0.142-0.83-0.067-1.24-1.945-0.375-1.716-2.092-3.406-4.084-4.02l-1.83-0.564 1.961-0.026zm30.538 0.448c-0.21-0.008-0.4 0.023-0.54 0.109-0.22 0.135-0.39 0.41-0.39 0.613 0 0.478 1.84 0.483 2.13 0.006 0.21-0.331-0.56-0.706-1.2-0.728zm13.97 0.308c-0.4 0-1.97 1.405-1.97 1.764 0 0.426 0.96 0.161 1.64-0.453 0.79-0.713 0.94-1.311 0.33-1.311zm-34.666 1.17c-0.365 0.071-0.884 0.424-1.262 1.002-0.523 0.798-0.567 1.189-0.215 1.961 0.66 1.448 1.646 1.252 1.566-0.31-0.035-0.701 0.072-1.584 0.239-1.961 0.243-0.552 0.036-0.763-0.328-0.692zm32.066 1.574c-0.52 0-0.55 0.107-0.15 0.588 0.27 0.324 0.55 0.588 0.64 0.588 0.08 0 0.14-0.264 0.14-0.588 0-0.323-0.28-0.588-0.63-0.588zm-25.199 0.04c-0.619-0.061-2.049 0.75-1.809 1.138 0.133 0.215 0.474 0.391 0.758 0.391 0.639 0 1.602-1.104 1.26-1.445-0.048-0.049-0.121-0.076-0.209-0.084zm29.809 1.255c-0.17-0.005-0.38 0.032-0.61 0.12-0.66 0.253-0.79 0.64-0.36 1.07 0.4 0.4 0.77 0.314 1.28-0.293 0.41-0.495 0.2-0.881-0.31-0.897zm-11.6 0.127c-0.15-0.016-0.42 0.108-0.9 0.364-0.6 0.309-1.32 0.563-1.62 0.564-0.43 0.002-0.44 0.118-0.05 0.592 0.93 1.127 2.75 0.445 2.75-1.035 0-0.31-0.03-0.468-0.18-0.485zm-15.6 0.539c-0.2 0-0.64 0.288-1 0.639-0.59 0.59-0.55 0.709 0.45 1.568 1.24 1.075 3.04 1.345 2.2 0.332-0.27-0.328-0.38-0.71-0.24-0.849 0.29-0.292-0.87-1.69-1.41-1.69zm58.29 1.594c-0.3-0.065-0.56 0.162-0.56 0.733 0 1.194 0.66 2.622 1.62 3.519 1.25 1.163 1.83 0.407 0.81-1.037-0.45-0.623-0.93-1.606-1.07-2.186-0.16-0.603-0.49-0.963-0.8-1.029zm-67.77 0.01c-0.359 0.004-0.766 0.254-1.213 0.748-0.393 0.434-1.207 0.785-1.825 0.785-0.613 0-1.115 0.164-1.115 0.365 0 0.627 1.331 0.826 2.754 0.411 1.099-0.321 1.438-0.284 1.752 0.197 0.895 1.367 1.41-0.226 0.576-1.783-0.26-0.486-0.571-0.727-0.929-0.723zm17.11 0.182c-0.1-0.013-0.19 0.026-0.26 0.132-0.15 0.239-0.16 0.611-0.03 0.827 0.29 0.457 0.99 0.527 0.98 0.097-0.01-0.523-0.39-1.02-0.69-1.056zm36.52 0.388c-0.18 0.025-0.47 0.169-0.93 0.438-0.64 0.382-1.17 0.833-1.17 1.002 0 0.479 1.35 0.362 1.88-0.162 0.26-0.259 0.47-0.712 0.47-1.004 0-0.206-0.07-0.299-0.25-0.274zm-48.224 0.178c-0.297 0-0.541 0.266-0.541 0.59 0 0.373 0.377 0.588 1.029 0.588 0.87 0 0.952-0.091 0.539-0.588-0.268-0.324-0.73-0.59-1.027-0.59zm20.444 0c-0.97 0-1.55 0.483-1.11 0.926 0.47 0.465 1.6 0.256 1.83-0.336 0.16-0.423-0.04-0.59-0.72-0.59zm-34.22 0.875c-0.059-0.019-0.125-0.017-0.195 0.006-0.604 0.198-0.899 2.648-0.318 2.648 0.229 0 0.416 0.278 0.416 0.616 0 0.337 0.183 0.953 0.406 1.371 0.649 1.212 0.987 0.889 1.07-1.022 0.055-1.263-0.092-1.844-0.504-2.002-0.319-0.122-0.58-0.572-0.58-0.998 0-0.333-0.117-0.563-0.295-0.619zm20.47 0.131c-0.51 0.003-0.61 0.503 0.11 0.92 0.88 0.513 1.28 0.528 1.28 0.049 0-0.208-0.34-0.562-0.76-0.786-0.24-0.13-0.46-0.184-0.63-0.183zm-5.04 0.705c-0.081 0.01-0.142 0.029-0.176 0.062-0.075 0.075-0.021 0.325 0.121 0.555 0.311 0.503 2.175 0.563 2.175 0.07 0-0.297-1.552-0.755-2.12-0.687zm78.87 0.316c0.13-0.033 0.44 0.23 1 0.77 0.48 0.459 3.16 2.334 5.96 4.166 8.31 5.428 12.61 10.484 14.51 17.062 0.36 1.245 0.56 2.479 0.45 2.745-0.13 0.324-0.2 0.335-0.22 0.033-0.06-0.812-7.1-7.925-11.38-11.494-6.04-5.035-9.79-9.493-10.3-12.27-0.12-0.649-0.16-0.978-0.02-1.012zm-105.99 0.252c0.351-0.025 0.145 0.646-0.557 2.137-1.297 2.755-4.06 5.929-8.513 9.777-2.322 2.007-5.177 4.531-6.342 5.61-1.165 1.078-3.173 3.178-4.461 4.668-2.231 2.58-2.327 2.646-2.055 1.373 1.599-7.461 5.878-12.938 14.508-18.569 2.588-1.688 5.367-3.589 6.176-4.224 0.624-0.491 1.034-0.757 1.244-0.772zm69.713 0.145c-0.39-0.041-1.57 0.313-4.58 1.232-3.11 0.95-4.03 1.616-2.68 1.936 1.78 0.422 6.86-1.451 7.34-2.707 0.1-0.27 0.15-0.437-0.08-0.461zm-52.121 0.361c-0.21 0.016-0.469 0.075-0.768 0.182-1.245 0.444-1.912 1.403-1.578 2.273 0.136 0.353 0.585 0.643 0.996 0.643 0.816 0 1.892-1.043 1.491-1.444-0.137-0.136-0.048-0.49 0.197-0.785 0.48-0.579 0.291-0.916-0.338-0.869zm16.921 0.877c-1.3 0.018-1.23 0.571 0.32 1.244 1.53 0.667 1.51 0.666 2.25 0.203 0.9-0.568-0.04-1.262-1.93-1.422-0.24-0.02-0.46-0.028-0.64-0.025zm-5.48 0.576c-0.14 0.03-0.18 0.152-0.18 0.358 0 0.35 0.29 0.959 0.65 1.353 0.69 0.772 3.83 1.047 3.59 0.315-0.07-0.222-1.06-0.83-2.19-1.354-1.1-0.512-1.63-0.721-1.87-0.672zm6.37 2.625c-0.14-0.023-0.28 0.043-0.44 0.196-0.3 0.305-0.26 0.524 0.14 0.775 0.8 0.493 1.33 0.053 0.76-0.631-0.17-0.205-0.32-0.317-0.46-0.34zm-20.09 0.354c-0.097 0.01-0.183 0.036-0.254 0.08-0.302 0.186-0.212 0.444 0.279 0.803 0.854 0.624 1.226 0.66 1.539 0.154 0.266-0.43-0.89-1.11-1.564-1.037zm14.26 0.291c-0.08 0.001-0.15 0.019-0.18 0.056-0.14 0.135-0.14 0.517-0.02 0.85 0.24 0.619 2.22 0.869 2.22 0.279 0-0.397-1.46-1.193-2.02-1.185zm23.61 0.336c-0.86 0-1.37 0.59-1 1.176 0.32 0.519 0.72 0.495 1.29-0.079 0.69-0.686 0.58-1.097-0.29-1.097zm-15.76 0.519c-0.47 0.052-0.34 0.502 0.53 1.244 0.68 0.586 1.35 0.838 1.88 0.702 1.14-0.301 0.8-0.899-0.92-1.584-0.7-0.279-1.2-0.393-1.49-0.362zm33.8 1.489c0.73-0.022 0.9 0.302 1.51 1.574 0.46 0.941 1.26 2.416 1.77 3.279 0.9 1.509 0.92 1.675 0.45 4.371-0.37 2.133-0.84 3.288-1.95 4.834-0.8 1.117-1.62 2.458-1.82 2.981l-0.36 0.949h-7.88-7.88l0.28-0.863c0.15-0.476 0.51-1.106 0.81-1.401 0.63-0.63 0.68-1.433 0.16-2.412-0.26-0.494-0.21-0.926 0.18-1.445 0.31-0.407 0.57-1.55 0.58-2.541 0-1.293 0.23-2.003 0.79-2.512 0.43-0.39 0.79-1.04 0.79-1.443 0-0.424 0.41-0.892 0.99-1.11 0.54-0.207 1.09-0.645 1.21-0.972 0.24-0.617 6.49-2.723 9.42-3.174 0.41-0.062 0.71-0.108 0.95-0.115zm3.82 0.849c0.79-0.053 2.91 0.864 3.4 1.557 0.33 0.471 0.6 1.538 0.6 2.371 0 2.087 0.94 1.705 1.1-0.445 0.06-0.9 0.26-1.635 0.44-1.635 0.46 0 1.23 1.011 0.97 1.273-0.12 0.122-0.04 0.851 0.17 1.621 0.37 1.336 0.29 1.52-1.74 4.055-1.16 1.461-2.12 2.991-2.12 3.398 0 0.408-0.31 0.976-0.69 1.262-0.77 0.591-1.53 0.69-1.81 0.24-0.1-0.167 0.17-1.358 0.61-2.646s0.82-3.489 0.85-4.891c0.05-2.215-0.09-2.767-1.08-4.222-0.62-0.921-1.05-1.754-0.95-1.852 0.05-0.051 0.13-0.078 0.25-0.086zm-22.12 0.279c-0.98 0-1.52 0.56-1.14 1.176 0.35 0.563 1.6 0.483 2.11-0.135 0.55-0.657 0.19-1.041-0.97-1.041zm71.41 0.981l2.37 2.353c2.55 2.521 4.5 5.945 5.48 9.623 0.74 2.782 0.73 9.134-0.01 11.984-0.32 1.23-0.64 2.3-0.72 2.38s-0.25-0.98-0.38-2.35-0.5-3.27-0.84-4.22c-0.33-0.954-0.6-2.415-0.61-3.247-0.01-3.263-1.99-8.826-4.36-12.277-0.84-1.223-1.15-2.077-1.06-2.98l0.13-1.266zm-142.53 0.195c0.602 0-0.033 2.447-1.047 4.031-2.653 4.147-3.897 7.499-4.305 11.602-0.142 1.431-0.44 3.041-0.66 3.582-0.22 0.54-0.506 2.57-0.635 4.51l-0.234 3.53-0.772-2.36c-0.616-1.87-0.768-3.38-0.748-7.446 0.028-5.466 0.458-7.22 2.815-11.472 1.021-1.844 4.885-5.977 5.586-5.977zm38.375 0.862c-0.41 0.032-0.74 0.48-0.74 1.123 0 0.974 0.461 0.971 1.072-0.006 0.301-0.483 0.337-0.855 0.096-1.004-0.145-0.09-0.292-0.124-0.428-0.113zm65.283 0.138c2.29-0.227 6.8 5.326 7.53 9.918 0.18 1.113 0.03 1.927-0.59 3.135l-0.83 1.631h-6.86-6.85v-0.983c0-0.559 0.42-1.35 0.98-1.836 0.54-0.468 0.98-1.25 0.98-1.738 0-0.531 0.86-1.821 2.16-3.217 1.93-2.093 2.15-2.505 2.15-4.064 0-0.954 0.22-2.024 0.49-2.375 0.23-0.288 0.51-0.438 0.84-0.471zm-49.97 1.744c1.06 0 2.32 1.007 2.8 2.233 0.29 0.757 0.86 1.608 1.27 1.888 0.59 0.419 0.64 0.66 0.28 1.332-0.24 0.452-0.47 0.817-0.52 0.811-0.26-0.033-3.02-2.794-3.56-3.564-0.7-0.996-0.87-2.7-0.27-2.7zm-38.477 0.084c0.231 0.045-0.083 0.795-0.809 1.725-1.256 1.609-2.27 2.478-7.353 6.301-2.48 1.865-5.68 4.603-7.112 6.084-1.431 1.481-3.251 3.877-4.045 5.327l-1.441 2.63 0.213-2.15c0.251-2.54 2.286-6.882 4.357-9.286 2.458-2.853 5.014-4.623 11.949-8.277 1.834-0.966 3.553-1.931 3.823-2.145 0.203-0.161 0.341-0.224 0.418-0.209zm111.93 0.36c1.04 0.188 9.44 4.677 12.06 6.482 3.59 2.481 7.01 6.971 8.07 10.615 0.33 1.13 0.54 2.5 0.48 3.03-0.11 0.85-0.31 0.65-1.5-1.44-1.77-3.115-6.36-7.753-10.59-10.695-3.32-2.316-8.63-7.212-8.63-7.969 0-0.028 0.04-0.036 0.11-0.023zm-55.59 3.478c-0.32 0-0.59 0.177-0.59 0.393 0 0.215 0.27 0.39 0.59 0.39 0.33 0 0.59-0.175 0.59-0.39 0-0.216-0.26-0.393-0.59-0.393zm-11.61 1.297c0.1 0.045 0.2 0.222 0.36 0.512 0.23 0.444 0.33 1.19 0.21 1.656-0.25 0.936-0.45 1.01-1.29 0.475-0.5-0.317-0.5-0.526 0.03-1.651 0.37-0.768 0.52-1.066 0.69-0.992zm-48.227 5.457c0.147-0.022 0.238-0.023 0.261 0 0.334 0.334-2.701 3.499-6.654 6.935-4.244 3.7-7.778 7.94-9.349 11.21-0.518 1.08-1.148 2.4-1.401 2.94-0.392 0.84-0.443 0.58-0.346-1.76 0.207-4.98 2.903-9.39 8.993-14.7 2.838-2.474 4.117-3.306 6.091-3.963 1.031-0.343 1.964-0.596 2.405-0.662zm119.29 0.024c1.22 0.089 4.87 1.869 6.79 3.398 5.23 4.163 9.05 9.103 10.02 12.973 0.25 0.97 0.39 2.65 0.33 3.72l-0.13 1.95-0.49-1.62c-1.19-3.93-5.82-9.57-12.95-15.773-2.78-2.412-4.31-4.198-3.93-4.578 0.06-0.062 0.19-0.083 0.36-0.07zm-38.05 0.322c0.61 0.053 1.15 0.394 1.15 0.98 0 0.377-0.49 0.547-1.58 0.547-1.46 0-1.55-0.061-1.17-0.785 0.3-0.561 0.99-0.795 1.6-0.742zm21.08 0.035c1.14 0.029 1.79 0.533 1.51 1.256-0.17 0.434-0.74 0.627-1.85 0.627-1.44 0-1.6-0.089-1.48-0.881 0.09-0.662 0.42-0.908 1.3-0.984 0.18-0.016 0.36-0.022 0.52-0.018zm-44.03 0.314c1.42 0 1.78 0.25 1.48 1.02-0.22 0.588-3.65 0.81-3.65 0.236 0-0.676 1-1.256 2.17-1.256zm-80.256 0.981l0.027 3.76c0.03 4.149 1.07 9.019 2.375 11.129 0.544 0.88 0.789 1.96 0.789 3.47 0 1.2 0.193 3.09 0.43 4.2 0.237 1.1 0.358 2.08 0.27 2.16-0.392 0.4-3.493-3.35-4.395-5.31-1.474-3.2-1.921-5.95-1.687-10.39 0.152-2.89 0.466-4.59 1.199-6.47l0.992-2.549zm162.9 0l0.7 1.65c1.16 2.729 1.64 6.089 1.45 10.189-0.21 4.25-0.94 6.81-2.75 9.53-0.65 0.97-1.71 2.2-2.37 2.73l-1.19 0.96 0.29-1.16c0.16-0.64 0.37-2.57 0.47-4.29 0.12-2.1 0.44-3.62 0.96-4.59 1.44-2.67 1.99-5.19 2.21-10.12l0.23-4.899zm-127.87 2.941h46.387c41.93 0 46.4 0.059 46.62 0.619 0.37 0.969 0.27 16.979-0.15 23.299-0.51 7.62-1.44 15.5-2.4 20.19-0.47 2.27-2.04 8.97-2.14 9.14-0.04 0.07-7.11-5.15-15.71-11.58-20.74-15.53-25.88-19.32-26.19-19.32-0.26 0-3.58 2.46-27.477 20.32-7.333 5.48-13.536 10.13-13.785 10.33-0.596 0.48-1.327-1.92-2.674-8.77-2.047-10.39-3.39-29.65-2.766-39.65l0.285-4.578zm110.31 4.288c0.29 0.04 1.11 0.75 3.03 2.5 3.98 3.61 5.69 5.61 7.13 8.38 1.47 2.81 2.18 5.74 2.13 8.75-0.02 1.4-0.16 3.08-0.31 3.72-0.25 1.12-0.3 1.06-0.96-1.17-1.08-3.62-3.38-8.25-6.18-12.39-2.67-3.96-4.4-7.21-4.89-9.18-0.1-0.4-0.12-0.63 0.05-0.61zm-127.98 0.02c1.041 0-1.363 4.96-5.095 10.51-2.517 3.75-4.285 7.27-5.385 10.74-0.878 2.77-1.173 3.02-1.469 1.23-1.105-6.69 1.104-12.11 7.524-18.46 2.237-2.21 4.229-4.02 4.425-4.02zm22.59 0.4l0.207 6.37c0.22 6.78 1.021 10.98 2.862 15.01 1.969 4.32 5.342 8.27 9.38 11.01 1.076 0.73 2.047 1.33 2.161 1.33 0.386 0 4.479-2.88 5.819-4.09 1.69-1.53 4.45-5.39 5.48-7.68 2.26-4.98 3.21-9.94 3.21-16.76v-5.19h-14.56-14.559zm54.019 0.19l0.05 6.08c0.06 7.04 0.91 11.3 3.16 15.88 2.27 4.61 4.83 7.5 9.33 10.52 0.86 0.58 1.66 1.05 1.79 1.05 0.69 0 4.4-2.82 6.45-4.91 5.65-5.74 8.24-13.58 7.96-24.11l-0.12-4.51h-14.31-14.31zm-51.685 2.16h12.805 12.8v1.13c0 1.99-0.78 9.19-1.21 11.22-1.07 4.99-3.36 9.48-6.6 12.89-1.2 1.26-2.92 2.8-3.82 3.42l-1.627 1.13-2.305-1.7c-6.32-4.65-9.287-11.53-9.797-22.7l-0.246-5.39zm53.845 0h12.54 12.55v3.82c0 10.82-3.47 18.91-10.36 24.17-1.02 0.78-2.18 1.42-2.57 1.42-0.4 0-1.6-0.69-2.67-1.54-6.13-4.85-9.49-13.29-9.49-23.85v-4.02zm14.9 0.78c-0.18 0-1.2 0.7-2.28 1.55l-1.95 1.54-0.9-0.96c-0.49-0.52-1.08-0.95-1.3-0.95-0.56 0-3.38 2.8-3.38 3.37 0 0.25 0.27 0.68 0.59 0.94 0.85 0.71 0.84 13.55-0.01 14.68-0.8 1.05-0.72 1.78 0.27 2.85 1.08 1.14 1.32 1.13 2.75-0.08 1.45-1.22 3.65-1.3 5.79-0.21l1.51 0.77 1.52-1.1c4.56-3.3 5.57-7.24 2.83-11.02l-1.19-1.65 0.86-0.92c0.48-0.51 0.77-1.18 0.65-1.49-0.35-0.9-5.4-7.32-5.76-7.32zm-62.247 1.18c-0.464 0-3.24 2.88-3.24 3.37 0 0.25 0.264 0.68 0.588 0.94 0.474 0.4 0.588 1.61 0.588 6.22v5.73l3.029 3.04c1.666 1.68 3.117 3.05 3.223 3.05s1.124-0.92 2.261-2.04l2.068-2.04 1.53 1.49 1.53 1.49 1.61-1.46c0.89-0.8 1.61-1.65 1.6-1.9 0-0.24-0.53-1.04-1.17-1.77l-1.17-1.33v-5.62-5.62l-1.78-1.77c-0.97-0.98-1.89-1.78-2.04-1.78-0.46 0-3.24 2.88-3.24 3.37 0 0.25 0.264 0.68 0.588 0.94 0.899 0.75 0.849 9.65-0.061 10.66-0.797 0.88-1.543 0.92-1.859 0.09-0.131-0.34-0.236-3.13-0.236-6.19v-5.58l-1.776-1.65c-0.976-0.9-1.896-1.64-2.043-1.64zm-28.482 0.76c0.059 0.04 0.025 0.27-0.059 0.65-0.677 3.09-1.595 5.4-3.564 8.98-5.073 9.23-6.382 12.85-7.176 19.8-0.234 2.05-0.47 4.26-0.523 4.9-0.079 0.95-0.19 0.77-0.577-0.98-1.679-7.56-1.662-11.62 0.069-15.85 1.574-3.86 5.091-9.72 7.261-12.11 1.016-1.12 2.502-2.9 3.303-3.95 0.812-1.08 1.168-1.51 1.266-1.44zm90.279 0.04c0.37 0.04 0.96 0.67 2.21 2.25l2.07 2.64-1.32 1.1-1.33 1.1 1.52 1.45c1.84 1.75 2.5 3.76 1.93 5.86-0.51 1.86-3.63 4.98-4.57 4.58-2.43-1.04-3.81-1.35-5.01-1.12-0.73 0.14-1.77 0.6-2.31 1.02-0.76 0.59-0.92 0.63-0.74 0.15 0.13-0.34 0.39-0.62 0.59-0.62 0.19 0 0.35-3.32 0.35-7.4 0-6.17-0.1-7.48-0.6-7.9-0.54-0.44-0.51-0.6 0.26-1.42l0.87-0.93 1.1 1.05 1.09 1.04 1.57-1.09c0.86-0.59 1.77-1.32 2.01-1.61 0.09-0.11 0.19-0.16 0.31-0.15zm32.32 0.36c0.15-0.05 0.5 0.39 1.3 1.46 0.78 1.04 2.17 2.68 3.08 3.65 2.68 2.86 6.54 9.69 7.84 13.88 0.85 2.75 0.68 8.52-0.37 12.98-0.36 1.51-0.71 2.8-0.78 2.87-0.06 0.06-0.24-1.7-0.39-3.92-0.31-4.55-1.25-8.88-2.77-12.67-0.9-2.25-1.77-3.93-5.46-10.59-1.22-2.2-2.56-5.92-2.56-7.1 0-0.34 0.02-0.54 0.11-0.56zm-146.58 0.34c0.098-0.06 0.179 0.43 0.338 1.64 0.639 4.83 3.191 9.74 6.02 11.57 1.052 0.67 1.247 1.08 1.473 3.03 0.143 1.23 0.596 3.22 1.005 4.41 0.447 1.3 0.58 2.16 0.332 2.16-0.226 0-1.599-1.19-3.05-2.65-5.021-5.03-7.724-13.36-6.33-19.5 0.089-0.4 0.154-0.63 0.212-0.66zm170.14 0.22c0.07 0.01 0.17 0.15 0.31 0.39 0.65 1.13 0.16 7.87-0.76 10.44-1.44 4.03-2.59 6-4.93 8.51-2.13 2.28-3.79 3.62-3.79 3.06 0-0.12 0.36-1.48 0.79-3.04s0.78-3.33 0.78-3.95c0-0.84 0.51-1.57 2.11-3.04 2.87-2.63 5.31-7.78 5.35-11.34 0.01-0.75 0.04-1.06 0.14-1.03zm-117.75 0.33c0.227 0.03 0.477 0.25 0.951 0.7 0.954 0.9 0.977 1.05 0.977 6.65v5.74l1.293 1.25c0.711 0.69 1.47 1.25 1.685 1.25 0.216 0 1.045-0.66 1.844-1.48l1.447-1.49v-5.05c0-3.95-0.13-5.19-0.59-5.7-0.528-0.59-0.507-0.73 0.2-1.37 0.77-0.7 0.82-0.69 1.77 0.2 0.95 0.9 0.98 1.05 0.98 6.61 0 5.55 0.02 5.72 0.99 6.73l0.98 1.03-0.8 0.72c-0.78 0.71-0.82 0.7-2.06-0.42-0.69-0.63-1.33-1.3-1.41-1.48s-1.147 0.65-2.368 1.86l-2.221 2.2-2.047-2.07-2.047-2.07v-5.65c0-4.48-0.12-5.77-0.59-6.29-0.53-0.59-0.51-0.73 0.2-1.37 0.384-0.35 0.589-0.52 0.816-0.5zm60.347 0.72c-0.32 0-1.07 0.43-1.66 0.95-0.99 0.87-1.08 1.18-1.08 3.84 0 1.59 0.11 3.01 0.25 3.15 0.27 0.27 1.71-0.65 4.36-2.77l1.67-1.33-1.47-1.92c-0.81-1.05-1.74-1.91-2.07-1.92zm0.2 2.62c0.3-0.06 0.63 0.07 0.87 0.47 0.37 0.58 0.25 0.84-0.7 1.55l-1.15 0.85v-1.18c0-0.93 0.47-1.59 0.98-1.69zm0.76 4.23c-0.46-0.03-0.9 0.26-1.96 1.03l-1.77 1.27 0.11 2.57 0.12 2.57 1.64-0.13c0.9-0.07 1.96 0.05 2.35 0.28 1.03 0.6 1.16 0.55 2.06-0.7 0.97-1.37 1.06-3.81 0.2-5.05-0.34-0.48-1.14-1.15-1.78-1.48-0.42-0.22-0.7-0.35-0.97-0.36zm-86.291 0.36c0.381-0.02 0.192 0.71-0.565 3.15-0.74 2.4-1.294 3.71-4.396 10.4-2.195 4.74-3.838 9.42-4.811 13.72-0.317 1.4-0.706 4.14-0.865 6.08-0.266 3.24-0.327 3.43-0.746 2.35-1.096-2.82-1.309-4.06-1.309-7.61 0-7.55 2.615-16.7 6.24-21.87 1.867-2.65 4.314-5.15 5.881-5.99 0.254-0.13 0.444-0.22 0.571-0.23zm115.96 0.22c0.9 0 5.77 5.4 7.23 8.03 1.82 3.27 3.84 9.69 4.67 14.87 0.79 4.89 0.76 6.15-0.18 9.86-1.03 4.03-1.57 4.55-1.57 1.52 0-6.07-2.2-13.61-6.86-23.5-3.33-7.07-4.46-10.78-3.29-10.78zm-28.94 1.43l0.72 0.89c0.4 0.5 0.73 1.1 0.72 1.35-0.04 1.27-0.99 2.01-2.44 1.89-1.33-0.11-1.47-0.23-1.47-1.25 0-0.81 0.34-1.37 1.24-2l1.23-0.88zm-115.6 1.03c0.012 0 0.025 0.03 0.039 0.08 1.379 5.26 4.8 10.45 8.555 12.98l1.994 1.34 0.68 3.8c0.375 2.08 0.63 3.84 0.566 3.9-0.311 0.31-2.858-1.46-4.83-3.37-4.421-4.28-6.744-9.53-7.017-15.86-0.074-1.72-0.066-2.89 0.013-2.87zm172.7 0.08l0.02 2.41c0.01 3.05-1.58 8.67-3.24 11.44-1.83 3.04-3.13 4.5-5.81 6.51-2.78 2.1-3.3 2.22-2.88 0.72 0.16-0.59 0.49-2.35 0.73-3.89 0.4-2.67 0.51-2.88 2-3.87 3.59-2.39 6.23-5.84 8.09-10.55l1.09-2.77zm-86.12 3.45c0.38 0.15 7.27 5.21 14.79 10.87 0.54 0.41 6.66 4.98 13.6 10.16l12.62 9.41-1.29 3.84c-1.52 4.49-3.7 9.82-5.37 13.13-1.08 2.14-1.25 2.3-1.85 1.78-0.36-0.31-3.83-2.92-7.71-5.8-3.89-2.88-10.94-8.13-15.69-11.68-4.74-3.54-8.84-6.52-9.1-6.62-0.27-0.1-2.48 1.3-4.91 3.12s-9.71 7.25-16.18 12.05c-6.471 4.81-11.958 8.9-12.195 9.08-0.686 0.54-5.066-9.14-7.25-16.02-0.494-1.56-0.821-2.91-0.726-3s5.996-4.51 13.113-9.83c7.118-5.31 13.378-9.99 13.918-10.4 9.78-7.36 13.84-10.24 14.23-10.09zm-0.98 2.69c-0.26 0.04-0.31 0.35-0.31 0.97 0 0.56-0.64 1.89-1.42 2.96-1.32 1.79-1.51 1.91-2.65 1.65-1.37-0.31-2.57-0.3-2.91 0.03-0.12 0.12 0.08 0.84 0.44 1.6s0.66 2.27 0.66 3.34c0 3.16 1.27 5.58 3.72 7.09 1.61 0.99 4.59 0.96 6.43-0.07 2.24-1.26 3.13-2.91 3.6-6.66 0.22-1.82 0.55-3.48 0.72-3.7s0.42-0.73 0.57-1.13c0.23-0.65 0.06-0.71-1.71-0.59-1.25 0.09-1.96-0.02-1.96-0.29 0-0.8-2.36-3.71-3.64-4.49-0.82-0.5-1.28-0.74-1.54-0.71zm1.16 2.64l0.87 1.1c0.71 0.9 0.82 1.4 0.62 2.86-0.65 4.71-0.69 6.37-0.16 6.2 0.29-0.1 0.63-0.78 0.75-1.52 0.29-1.74 0.98-2.98 1.94-3.5 0.71-0.38 0.74-0.33 0.39 0.61-0.22 0.55-0.39 1.8-0.39 2.77 0 2.2-0.85 3.88-2.34 4.66-2.11 1.09-4.44 0.66-6-1.12-0.77-0.86-0.96-1.53-1.2-4.17-0.09-0.97-0.31-2.21-0.48-2.75-0.26-0.83-0.23-0.91 0.27-0.5 0.31 0.26 0.8 1.34 1.07 2.41 0.49 1.91 1.75 3.58 2.3 3.04 0.15-0.15 0.06-0.62-0.2-1.04s-0.48-1.6-0.48-2.63c0-1.8 0.16-2.16 2.4-5.48l0.64-0.94zm-60.615 3.97c0.804 0 0.237 4.94-1.24 10.81-2.522 10.03-3.332 16.6-2.362 19.16 0.528 1.38 0.154 1.26-0.783-0.27-1.914-3.12-2.442-5.36-2.209-9.37 0.228-3.91 1.263-8.68 2.655-12.21 1.439-3.66 3.603-8.12 3.939-8.12zm120.46 0.46c0.42-0.15 3.41 6.3 4.51 9.73 2.15 6.73 2.6 12.91 1.22 16.55-0.44 1.14-1.1 2.47-1.47 2.95-0.66 0.85-0.69 0.71-0.74-4.11-0.04-4.54-0.22-5.69-1.92-12.64-1.78-7.24-2.42-12.19-1.6-12.48zm-114.65 0.56v2.65c0 2.9-0.019 3-2.435 12.6-1.651 6.56-1.678 6.77-1.651 13.13 0.024 5.44 0.158 6.87 0.84 8.93 0.446 1.34 0.76 2.45 0.696 2.45-0.292 0-3.015-4.43-3.661-5.95-1.967-4.65-1.871-9.62 0.375-19.54 1.788-7.9 2.506-9.82 4.827-12.92l1.009-1.35zm108.81 0.55c1.08 0 4.03 6.08 4.91 10.13 0.41 1.87 1.1 4.98 1.54 6.92 0.57 2.54 0.79 4.95 0.8 8.6l0.01 5.07-1.56 3.17c-0.86 1.74-1.93 3.6-2.39 4.14l-0.82 0.98 0.25-0.98c1.24-4.67 1.42-6.36 1.28-11.57-0.14-4.97-0.33-6.19-2.02-12.94-1.74-6.91-2.72-13.52-2-13.52zm30.18 0c0.18 0-0.55 3.62-1.02 5.09-1.28 3.97-4.68 8.85-8.31 11.89-1.11 0.94-2.89 2.3-3.96 3.01-1.52 1.03-1.86 1.15-1.61 0.56 0.17-0.42 0.71-1.9 1.21-3.3 1.66-4.74 1.99-5.26 4.26-6.82 2.65-1.83 6.85-6.21 8.27-8.64 0.58-0.99 1.1-1.79 1.16-1.79zm-169.26 0.19l1.162 1.79c1.743 2.69 5.748 6.81 8.197 8.43 2.314 1.54 2.583 1.98 4.463 7.33 0.588 1.67 0.952 3.04 0.813 3.04-0.69 0-4.585-3.02-6.938-5.37-4.287-4.29-6.793-8.77-7.424-13.27l-0.273-1.95zm69.058 2.55c-0.2 0-0.36 0.4-0.36 0.88 0 1.09-2.98 5.57-3.33 5.01-0.22-0.35-4.12-0.61-4.12-0.26 0 0.07 0.29 0.72 0.65 1.43 0.35 0.71 0.77 2.58 0.92 4.16 0.37 3.72 1.37 5.34 4.12 6.63 4.69 2.2 9.59-1.55 9.6-7.37 0-0.82 0.27-2.12 0.59-2.89 0.84-2.02 0.77-2.16-1.08-2.02-1.59 0.11-1.7 0.05-2.48-1.45-0.75-1.45-3.67-4.12-4.51-4.12zm29.67 0.06c-0.19 0.05-0.19 0.32-0.14 0.87 0.04 0.53-0.52 1.8-1.28 2.9l-1.35 1.96-2.26-0.2c-2.44-0.22-2.6-0.07-1.7 1.66 0.3 0.59 0.67 2.16 0.81 3.48 0.46 4.32 1.18 5.62 3.93 7.1 0.8 0.44 1.87 0.59 3.35 0.5 3.95-0.25 5.94-2.58 6.38-7.44 0.13-1.45 0.5-3.16 0.84-3.8 0.33-0.64 0.6-1.27 0.6-1.38 0-0.12-0.88-0.22-1.96-0.22-1.36 0-1.96-0.16-1.96-0.52 0-0.77-2.66-3.73-3.94-4.39-0.74-0.38-1.12-0.57-1.32-0.52zm-28.5 2.6l0.8 1.32c0.96 1.57 0.99 2.32 0.19 4.63-0.62 1.76-0.48 4.33 0.23 4.33 0.19 0 0.46-0.6 0.6-1.33 0.28-1.46 1.54-3.77 2.08-3.77 0.4 0 0.15 3.61-0.38 5.34-0.2 0.67-0.79 1.61-1.31 2.1-1.32 1.24-3.96 1.47-5.54 0.47-1.38-0.87-1.97-2.17-2.26-4.97-0.11-1.07-0.33-2.29-0.48-2.7-0.21-0.53-0.14-0.69 0.25-0.56 0.29 0.1 0.72 1.01 0.94 2.01 0.41 1.83 1.42 3.41 2.17 3.41 0.51 0 0.51-0.03-0.22-1.77-0.85-2.04-0.42-4.02 1.41-6.48l1.52-2.03zm29.88 0.48c0.41 0 1.36 1.46 1.72 2.67 0.16 0.55 0.01 1.43-0.38 2.26-0.68 1.44-0.69 4.78-0.01 4.53 0.22-0.08 0.61-0.88 0.87-1.78 0.27-0.9 0.96-2.08 1.54-2.6 0.93-0.85 1.02-0.88 0.76-0.18-0.16 0.43-0.39 1.75-0.51 2.94-0.28 2.72-0.99 4.14-2.45 4.89-3.02 1.56-6.36-0.22-6.87-3.66-0.11-0.78-0.35-2.26-0.53-3.29-0.3-1.73-0.27-1.82 0.35-1.26 0.36 0.33 0.76 1.33 0.88 2.22 0.21 1.58 1.56 3.47 2.09 2.94 0.15-0.15 0.07-0.72-0.18-1.27-0.9-1.96-0.57-4.13 0.96-6.35 0.78-1.13 1.57-2.06 1.76-2.06zm35.26 4.11l2.2 4.07c1.88 3.48 2.27 4.58 2.73 7.64 1.19 7.87 0.48 15.48-1.87 20.15-0.68 1.35-1.35 2.45-1.5 2.45s-0.04-1.19 0.24-2.64c1.01-5.23 0.64-11.92-1.17-20.88-0.61-3.01-0.79-5.35-0.68-8.82l0.05-1.97zm-101.79 0.42l0.311 1.36c0.426 1.87 0.055 5.52-1.172 11.56-0.867 4.26-1.037 6.13-1.035 11.37 0 3.65 0.195 6.92 0.462 7.82 0.253 0.85 0.389 1.61 0.303 1.7-0.401 0.4-2.339-3.31-3.066-5.88-0.666-2.35-0.812-3.98-0.817-9.13-0.007-8.73 0.274-9.94 3.868-16.65l1.146-2.15zm-31.75 0.26c0.085-0.11 0.508 0.52 1.344 1.97 2.661 4.61 6.845 8.67 11.318 10.99 2.121 1.09 2.587 1.54 3.473 3.35 0.563 1.15 1.682 2.78 2.488 3.63 1.784 1.87 1.38 1.89-1.941 0.09-8.806-4.77-14.015-10.79-16.485-19.04-0.176-0.59-0.248-0.93-0.197-0.99zm165.35 0.65c0.2 0.02-0.24 1.26-1.3 3.82-2.49 6.06-7 10.9-13.75 14.74-4.63 2.63-5.1 2.73-3.33 0.76 0.81-0.91 1.95-2.62 2.53-3.8 0.6-1.22 1.4-2.25 1.85-2.39 1.57-0.49 6.23-3.76 8.29-5.82 1.16-1.15 3-3.48 4.1-5.17 0.93-1.42 1.46-2.15 1.61-2.14zm-113.25 2.57c-0.075 0.01-0.141 0.03-0.198 0.07-0.177 0.11-0.322 0.62-0.322 1.14s-0.55 1.73-1.223 2.68l-1.222 1.74-2.307-0.21c-1.268-0.12-2.306-0.09-2.306 0.06s0.257 0.77 0.57 1.37c0.313 0.61 0.749 2.54 0.969 4.29 0.46 3.67 1.064 4.79 3.314 6.14 2.932 1.76 6.659 1.11 8.657-1.52 0.82-1.07 1.17-2.13 1.47-4.45 0.22-1.68 0.64-3.61 0.94-4.29 0.78-1.75 0.74-1.8-1.21-1.64-1.56 0.12-1.799 0.03-2.166-0.84-0.825-1.98-3.846-4.67-4.966-4.54zm60.832 0.22c-0.93 0-1.17 0.16-1.04 0.72 0.07 0.29-0.52 1.46-1.31 2.61l-1.44 2.08-2.31-0.21c-1.28-0.12-2.32-0.12-2.32 0 0 0.11 0.35 0.97 0.78 1.92 0.46 1.01 0.78 2.57 0.78 3.83 0.01 2.67 1.39 5.18 3.46 6.31 1.09 0.59 2.01 0.76 3.71 0.66 3.92-0.22 5.89-2.41 6.32-6.99 0.14-1.57 0.52-3.37 0.84-4.01 0.86-1.72 0.75-1.89-1.22-1.77-1.69 0.1-1.84 0.03-2.31-1.09-0.62-1.46-3.14-4.06-3.94-4.06zm0.35 2.29l0.72 0.91c1.12 1.44 1.27 2.65 0.57 4.6-0.69 1.9-0.8 3.1-0.41 4.13 0.41 1.06 0.86 0.69 1.13-0.94 0.25-1.46 1.49-3.54 2.11-3.54 0.15 0 0.16 1.25 0.02 2.77-0.27 2.96-1.05 4.49-2.75 5.36-2.84 1.46-6.63-0.67-6.63-3.72 0-0.6-0.24-2.01-0.52-3.13-0.5-1.93-0.49-2 0.19-1.64 0.41 0.22 0.72 0.82 0.72 1.37 0 1.38 1.03 3.66 1.77 3.95 0.95 0.36 1.04-0.01 0.34-1.4-0.91-1.84-0.5-4.02 1.27-6.58l1.47-2.14zm-59.897 0.46c0.517 0 1.724 2.32 1.724 3.31 0 0.36-0.274 1.18-0.609 1.82-0.675 1.31-0.631 4.33 0.066 4.56 0.249 0.08 0.546-0.54 0.688-1.42 0.241-1.51 1.904-4 2.368-3.54 0.12 0.12 0.05 0.82-0.167 1.56-0.212 0.74-0.385 1.97-0.385 2.73 0 1.65-0.804 2.92-2.357 3.72-1.371 0.71-3 0.75-4.272 0.09-1.654-0.85-2.45-2.37-2.771-5.29-0.166-1.51-0.434-2.96-0.596-3.23-0.226-0.36-0.104-0.37 0.537-0.02 0.507 0.27 0.832 0.82 0.832 1.42 0 1.38 1.022 3.66 1.764 3.95 0.949 0.36 1.132-0.1 0.434-1.1-1.103-1.57-0.803-3.88 0.828-6.35 0.801-1.22 1.663-2.21 1.916-2.21zm29.487 0.21c0.54 0.02 8.56 5.89 32.15 23.53 0.26 0.19-2.54 4.46-5.63 8.61-5.67 7.61-13.13 14.55-22.04 20.53-2 1.34-3.85 2.51-4.12 2.61-0.92 0.34-7.65-4.14-13.64-9.08-4.42-3.64-11.18-10.85-14.287-15.24-2.776-3.91-4.508-6.7-4.508-7.24 0-0.53 31.385-23.74 32.075-23.72zm-79.397 4.92c0.156-0.02 0.679 0.57 1.57 1.78 2.851 3.87 6.674 7.06 11.047 9.2 2.155 1.06 4.215 1.92 4.576 1.92s1.06 0.66 1.553 1.45c0.492 0.8 1.405 2.03 2.031 2.75 0.679 0.77 0.924 1.29 0.607 1.28-1.148-0.04-9.859-4.31-12.242-6.01-3.496-2.5-6.38-5.82-7.943-9.15-0.999-2.12-1.401-3.19-1.199-3.22zm158.57 0.11c0.28 0.29-1.21 3.6-2.54 5.63-1.97 3.02-6.3 6.84-9.83 8.67-1.68 0.88-4.51 2.21-6.28 2.95l-3.21 1.36 0.81-1.05c0.45-0.57 1.37-1.88 2.03-2.9 0.67-1.03 1.42-1.87 1.68-1.87 1.01 0 5.62-2.13 8.04-3.71 2.78-1.83 6.06-4.94 7.95-7.56 0.66-0.91 1.27-1.6 1.35-1.52zm-31.79 0.01c0.04-0.01 0.08 0 0.12 0.03 0.49 0.3 2.31 4.2 2.96 6.33 0.7 2.31 0.79 10.5 0.16 13.56-0.24 1.14-0.94 3.15-1.56 4.45-0.61 1.31-1.5 2.72-1.98 3.14l-0.86 0.76 0.27-0.98c1.13-4.09 1.28-8.72 0.59-17.86-0.41-5.31-0.27-9.29 0.3-9.43zm-95.049 0.11c0.142-0.03 0.244 0.17 0.383 0.52 0.252 0.63 0.275 2.94 0.066 6.47-0.516 8.74-0.372 16.91 0.344 19.41 0.663 2.3 0.677 2.6 0.082 1.8-3.23-4.36-4.136-7.08-4.385-13.17-0.242-5.93 0.203-8.61 2.09-12.55 0.833-1.74 1.184-2.43 1.42-2.48zm121.21 12.13c0.15-0.07 0.08 0.13-0.13 0.54-1.12 2.12-5.72 6.08-9.46 8.14-2.06 1.14-6.07 3.03-8.91 4.2l-5.18 2.14 2.18-2.7c2.03-2.5 2.39-2.77 5.2-3.77 7.92-2.81 12.2-4.95 15.1-7.57 0.67-0.6 1.05-0.92 1.2-0.98zm-116.54 0.15c0.667 0 1.201 3.26 1.51 9.22 0.339 6.53 1.079 9.95 2.736 12.64 0.432 0.7 0.744 1.27 0.694 1.26-0.051 0-1.062-0.67-2.248-1.47-3.816-2.58-5.397-7.3-4.936-14.74 0.182-2.94 0.448-4.25 1.092-5.4 0.468-0.83 0.986-1.51 1.152-1.51zm85.851 0c0.19 0 0.74 0.75 1.23 1.67 0.8 1.49 0.89 2.2 0.89 6.96 0 6.56-0.7 9.17-3.14 11.56-0.88 0.87-2.15 1.89-2.83 2.27l-1.24 0.69 1.01-1.79c1.66-2.97 2.13-5.2 2.46-11.56 0.31-5.94 0.95-9.8 1.62-9.8zm-116.47 0.19c0.137-0.08 0.771 0.34 1.9 1.25 2.834 2.29 6.103 3.98 11.319 5.84 5.673 2.02 6.481 2.44 7.437 3.81 0.48 0.7 1.342 1.84 1.914 2.54s0.973 1.26 0.891 1.24c-0.37-0.06-8.645-3.64-10.932-4.72-3.782-1.78-8.743-5.21-10.597-7.31-1.464-1.67-2.108-2.56-1.932-2.65zm91.332 2.98c-0.35 0.01-0.97 0.18-2.1 0.52-2.52 0.76-4.29 2.21-5.29 4.32-1.75 3.74-0.51 8.22 2.5 8.97 0.43 0.1 1.31 0.1 1.95-0.01 2.51-0.45 3.74-2.04 3.74-4.86 0-2.79-2.82-4.7-5.12-3.47-0.63 0.33-0.71 0.29-0.5-0.3 0.57-1.58 1.79-2.81 3.46-3.5 0.97-0.39 1.76-0.94 1.76-1.21 0-0.31-0.06-0.47-0.4-0.46zm-23.4 0.25c-1.97 0-3.09 0.62-3.87 2.12-0.72 1.41-0.5 2.75 0.65 3.81l0.8 0.75-1.03 0.81c-1.54 1.21-1.71 3.14-0.42 4.67 0.57 0.68 1.43 1.31 1.91 1.4 1.57 0.3 1.82 0.28 3.38-0.34 2.89-1.16 3.57-4.77 1.21-6.51l-1.11-0.82 1-0.85c2.12-1.82 0.51-5.04-2.52-5.04zm-9.55 0.11c-0.23 0-1.2 0.2-2.16 0.44-1.89 0.48-2.41 1.52-0.75 1.52h1l-0.11 5c-0.11 4.85-0.14 5-0.99 5.12-0.49 0.07-0.89 0.38-0.89 0.69 0 0.44 0.68 0.56 3.14 0.56 2.53 0 3.14-0.11 3.14-0.59 0-0.36-0.37-0.58-0.98-0.58h-0.98v-6.08c0-4.01-0.14-6.08-0.42-6.08zm21.22 0.2c-0.77 0-1.5 0.79-3.81 4.11-1.56 2.27-2.85 4.43-2.86 4.81-0.01 0.58 0.36 0.68 2.53 0.68h2.55v1.15c0 0.88-0.2 1.18-0.85 1.28-0.47 0.07-0.93 0.34-1.02 0.61-0.12 0.37 0.65 0.49 3.01 0.49 2.04 0 3.17-0.15 3.17-0.43 0-0.23-0.35-0.52-0.78-0.63-0.56-0.15-0.79-0.54-0.79-1.34 0-0.87 0.19-1.13 0.79-1.13 0.52 0 0.78-0.26 0.78-0.78s-0.26-0.79-0.77-0.79c-0.71 0-0.78-0.32-0.88-4.02-0.11-3.96-0.12-4.01-1.07-4.01zm-12.38 1.04c0.23-0.01 0.5 0.03 0.83 0.11 0.88 0.22 0.97 0.42 0.87 1.87-0.14 1.85-0.55 2.14-1.8 1.27-0.56-0.39-0.87-1.02-0.87-1.74 0-1.02 0.27-1.48 0.97-1.51zm45.09 0.9c0.02 0.01 0.05 0.05 0.07 0.11 0.11 0.27 0.11 0.71 0 0.98s-0.19 0.05-0.19-0.49c0-0.4 0.05-0.62 0.12-0.6zm-34.32 1.19l0.01 2.45 0.01 2.45h-1.37c-0.76 0-1.37-0.14-1.37-0.31s0.61-1.27 1.36-2.45l1.36-2.14zm32.69 0l0.5 2.36c0.93 4.36 0.42 9.15-1.35 12.82-0.91 1.87-3.22 4.38-2.63 2.86 0.89-2.3 1.38-5.02 1.39-7.65 0.01-3.68 0.63-7.57 1.46-9.17l0.63-1.22zm-74.16 0.59c0.8 0 1.489 3.2 1.845 8.56 0.269 4.05 0.619 6.43 1.156 7.84 0.425 1.12 0.715 2.03 0.647 2.03s-0.608-0.57-1.201-1.27c-2.819-3.34-4.169-9.2-3.276-14.23 0.286-1.61 0.659-2.93 0.829-2.93zm103.17 2.33l-1.36 1.68c-2.71 3.33-8.21 6.24-15.27 8.09-1.59 0.41-3.6 0.88-4.47 1.02l-1.56 0.28 0.92-0.87c1.17-1.11 4.26-2.58 9.47-4.5 2.26-0.84 5.95-2.47 8.19-3.61l4.08-2.09zm-131.68 0.26c0.185 0.02 0.611 0.25 1.285 0.66 2.19 1.36 5.299 2.8 9.9 4.59 7.453 2.89 8.919 3.57 9.827 4.54 1.141 1.21 0.367 1.17-5.081-0.27-6.98-1.85-12.495-4.71-14.859-7.69-1.016-1.29-1.38-1.85-1.072-1.83zm79.172 0.16c1.79 0 2.27 0.71 2.12 3.2-0.11 1.96-0.18 2.1-1.2 2.21-0.93 0.11-1.18-0.08-1.67-1.26-0.32-0.76-0.58-2.01-0.58-2.77 0-1.31 0.07-1.38 1.33-1.38zm-20.13 0.81c0.44 0.03 0.96 0.29 1.48 0.77 0.84 0.79 1.08 2.07 0.62 3.28-0.28 0.74-2.14 0.84-2.83 0.16-0.49-0.5-0.63-2.58-0.23-3.62 0.17-0.43 0.52-0.62 0.96-0.59zm-26.071 7.17c0.741 0.24 3.911 5.1 5.662 8.75 1.092 2.29 1.909 4.23 1.829 4.31-0.09 0.09-1.153-0.75-2.365-1.85-1.465-1.34-2.582-2.82-3.335-4.43-1.143-2.43-2.262-6.41-1.905-6.77 0.027-0.02 0.064-0.03 0.114-0.01zm64.971 0.27c0.56-0.03-0.21 3.31-1.35 5.86-0.63 1.4-1.79 3.23-2.59 4.05-1.51 1.56-3.9 3.45-3.55 2.79 0.11-0.2 0.52-1.07 0.9-1.94 2.46-5.47 5.66-10.71 6.59-10.76zm24.41 0.71l-1.57 1.62c-2.59 2.67-6.21 4.19-12.55 5.27-3.02 0.51-6.27 1.04-7.23 1.18-1.73 0.25-1.74 0.25-1.03-0.54 1.28-1.41 6.12-3.47 9.24-3.94 3.85-0.57 9.16-1.9 11.37-2.84l1.77-0.75zm-113.62 0.12l2.696 0.98c2.63 0.95 7.774 2.15 11.712 2.71 2.195 0.32 6.699 2.43 7.821 3.67 0.739 0.81 0.565 0.92-0.955 0.59-0.324-0.07-2.972-0.51-5.883-0.96-7.723-1.22-11.026-2.52-13.93-5.5l-1.461-1.49zm10.168 7.83c0.038 0 0.087 0.02 0.149 0.04 0.336 0.12 2.984 0.6 5.882 1.08 7.107 1.15 10.479 1.89 11.7 2.55 0.917 0.5 0.449 0.56-4.664 0.54-5.655-0.02-8.054-0.39-10.393-1.61-1.236-0.65-3.24-2.64-2.674-2.6zm93.09 0.02c0.93-0.05-1.71 2.23-3.71 3.12-1.78 0.79-2.76 0.9-8.48 1.01-5.86 0.11-6.37 0.07-5.45-0.45 1.15-0.65 4.9-1.51 9.57-2.18 3.06-0.44 6.26-1.04 7.84-1.46 0.09-0.02 0.17-0.04 0.23-0.04zm-70.43 0.05c0.1 0.01 0.28 0.1 0.56 0.25 0.45 0.24 2 1.85 3.43 3.58 4.32 5.23 9.07 7.79 17.39 9.39 1.19 0.23 5.25 0.94 9.02 1.58 13.47 2.29 17.99 3.84 16.5 5.63-0.64 0.77-0.51 0.78-3.37-0.55-4.72-2.21-9.1-3.47-19.73-5.69-7.29-1.52-11.52-2.88-16.05-5.17-4.61-2.33-6.5-4.35-7.72-8.3-0.17-0.52-0.21-0.73-0.03-0.72zm47.81 0.11c0.08-0.01 0.12 0.02 0.14 0.08 0.25 0.75-1.8 4.68-3.06 5.86-1.82 1.7-6.5 4.09-11.29 5.75-2.23 0.77-4.44 1.39-4.9 1.38-0.95-0.04-0.71-0.13 2.88-1.17 4.69-1.36 8.79-3.97 11.76-7.5 2.28-2.7 3.98-4.36 4.47-4.4zm11.41 6.04l-1.57 0.85c-0.86 0.47-2.8 1.18-4.31 1.59-3.15 0.84-9.16 1.31-9.94 0.77-0.4-0.27 0.05-0.7 1.76-1.69l2.3-1.32 5.88-0.1 5.88-0.1zm-64.894 0.01c5.684 0 5.684 0 7.964 1.27 1.26 0.7 2.32 1.44 2.36 1.66 0.1 0.6-5.07 0.6-7.97 0.01-2.533-0.52-6.327-1.82-7.451-2.55-0.399-0.26 1.245-0.39 5.097-0.39zm23.754 8.82c0.65 0.08-0.18 0.49-2.89 1.18-2.01 0.51-4.72 1.31-6.04 1.78-1.31 0.47-3.6 1.35-5.08 1.96-2.67 1.1-2.69 1.1-3.11 0.3-0.27-0.5-0.29-0.94-0.06-1.17 0.71-0.72 5.84-2.21 11.2-3.26 3.2-0.63 5.33-0.87 5.98-0.79z"/>
  <path d="m124.96 1.1055c-5.2 0.0372-10.48 0.2378-13.47 0.5879-16.531 1.9346-31.514 6.6962-45.84 14.567-4.33 2.379-12.282 7.352-12.744 7.97-0.108 0.145-0.813 0.686-1.568 1.202-5.983 4.086-18.216 15.939-23.524 22.791-11.924 15.395-20.028 32.561-23.857 50.537-0.7778 3.65-1.0868 5.45-2.0937 12.16-0.6837 4.55-0.6799 22.9 0.0058 28.03 2.1451 16.05 5.7501 28.08 12.406 41.39 6.234 12.47 12.829 21.6 22.948 31.76 7.954 7.99 11.961 11.3 20.353 16.78 17.34 11.34 36.055 17.79 57.484 19.83 3.97 0.37 23.33-0.15 27.18-0.73 27.28-4.15 50.34-15.48 69.43-34.11 10.44-10.19 17.62-19.88 24.15-32.57 5.97-11.59 9.65-22.73 12.01-36.27 2.11-12.17 2.02-28.38-0.23-41.37-3.84-22.181-14.48-44.259-29.19-60.58-1.46-1.617-3.22-3.589-3.91-4.383-1.83-2.099-9.77-9.113-13.71-12.101-18.79-14.265-38.78-22.238-62.93-25.092-2.62-0.3099-7.71-0.4358-12.9-0.3985zm0.6 2.0254c12.74 0.0791 25.64 2.0444 37.11 5.8144 37.21 12.226 65.98 40.687 78.41 77.565 5.21 15.47 7.29 33.34 5.74 49.3-2.85 29.31-14.9 54.93-35.49 75.49-19.22 19.19-43.92 31.25-71.09 34.71-5.77 0.73-19.44 1.05-24.6 0.57-13.13-1.23-24.018-3.78-35.37-8.27-35.17-13.94-62.177-43.91-72.383-80.34-3.3972-12.13-4.5022-20.21-4.5022-32.94 0-19.16 3.9033-36.225 12.193-53.321 14.276-29.44 40.629-52.437 71.639-62.514 6.148-1.9977 6.785-2.1745 12.154-3.3786 7.489-1.6796 15.509-2.5653 23.639-2.6758 0.85-0.0115 1.7-0.015 2.55-0.0097zm-2.13 5.8847c-1.22 0.0396-2.47 0.2658-2.59 0.6387-0.1 0.287 0.17 0.4907 0.65 0.4907 0.45 0 0.82 0.169 0.82 0.378 0 0.876-2.05 4.781-2.35 4.469-0.18-0.187-0.86-1.257-1.51-2.379-1.13-1.935-1.16-2.049-0.43-2.279 1.64-0.5202 0.62-0.9746-2.18-0.9746-2.35 0-2.94 0.1173-2.94 0.5879 0 0.3237 0.25 0.5877 0.55 0.5877s1.53 1.528 2.74 3.393c2.02 3.124 2.2 3.569 2.2 5.658 0 1.923-0.12 2.306-0.78 2.518-0.44 0.136-0.79 0.421-0.79 0.63 0 0.589 6.37 0.261 6.57-0.338 0.09-0.276-0.16-0.49-0.58-0.49-1.25 0-1.68-0.837-1.67-3.312 0-2.038 0.23-2.779 1.61-5.262 0.9-1.624 1.93-2.974 2.34-3.084 0.41-0.107 0.75-0.4472 0.75-0.7558 0-0.3689-1.19-0.5162-2.41-0.4766zm-13.29 0.3965c-0.16-0.0455-0.35 0.0672-0.59 0.3027-0.4 0.3812-7.5 1.6962-9.3 1.7212-0.892 0.012-1.073 0.186-1.068 1.027 0.008 1.618 0.433 2.779 1.018 2.779 0.32 0 0.54-0.405 0.54-0.967 0-1.032 0.98-1.779 2.33-1.779 0.45 0 0.81 0.221 0.82 0.49 0 0.27 0.35 2.431 0.78 4.803 0.96 5.377 0.96 5.713 0 5.965-0.44 0.113-0.79 0.469-0.79 0.791 0 0.408 0.27 0.521 0.88 0.373 0.49-0.117 1.59-0.324 2.45-0.459 2.78-0.435 3.34-0.598 3.34-0.99 0-0.212-0.43-0.385-0.94-0.385-1.16 0-1.23-0.17-2.2-5.76-1.03-5.938-1.07-5.611 0.79-5.611 1.35 0 1.64 0.151 1.98 1.043 0.29 0.764 0.51 0.927 0.83 0.609s0.3-0.912-0.06-2.219c-0.32-1.139-0.53-1.658-0.81-1.7339zm30.96 0.7329c-0.41 0.016-0.9 0.647-1.53 1.861-3.26 6.231-5.6 9.9-6.31 9.9-0.42 0-0.76 0.253-0.76 0.561 0 0.385 0.68 0.645 2.18 0.832 2.37 0.297 3.12 0.007 2.03-0.791-0.67-0.487-0.67-0.582-0.03-1.93 0.63-1.329 0.79-1.416 2.51-1.416h1.84l0.38 1.961c0.36 1.788 0.33 1.961-0.34 1.961-0.4 0-0.72 0.253-0.72 0.564 0 0.381 0.54 0.616 1.66 0.717 4.51 0.406 4.83 0.33 3.43-0.826-0.76-0.634-1.34-2.658-2.96-10.355-0.44-2.068-0.85-3.061-1.38-3.039zm7.13 0.837c-0.53 0.001-0.95 0.887-1.45 2.905-0.3 1.202 0.6 1.323 1.32 0.177 0.67-1.074 3.78-1.161 3.47-0.097-0.12 0.377-0.66 2.538-1.21 4.803-1.27 5.161-1.58 5.9-2.46 5.781-0.38-0.053-0.77 0.081-0.87 0.297-0.11 0.215 0.86 0.681 2.15 1.033 3.8 1.04 5.27 0.813 3.28-0.508l-0.83-0.551 1.25-4.888c0.68-2.689 1.41-5.056 1.61-5.26 0.7-0.723 2.5 0.299 2.9 1.65 0.49 1.674 0.9 1.605 1.21-0.201 0.41-2.455 0.39-2.652-0.2-2.523-0.72 0.157-9.11-1.879-9.6-2.332-0.21-0.188-0.4-0.286-0.57-0.286zm-52.179 1.704c-0.245-0.013-0.532 0.031-0.834 0.152-0.518 0.208-1.788 0.593-2.821 0.857-1.893 0.484-2.323 1.311-0.724 1.395 0.474 0.025 0.917 0.114 0.984 0.197s0.764 2.445 1.547 5.248c1.402 5.02 1.413 5.105 0.651 5.635-0.426 0.296-0.776 0.693-0.776 0.883 0 0.508 0.606 0.429 3.596-0.461 2.496-0.742 3.266-1.549 1.492-1.549-0.602 0-0.949-0.67-1.768-3.43-0.559-1.887-1.182-3.943-1.384-4.568-0.556-1.721-0.444-2.898 0.318-3.328 0.798-0.45 0.452-0.993-0.281-1.031zm43.759 2.015c0.27-0.107 0.43 0.503 0.69 2.01 0.22 1.301 0.08 1.399-1.43 1.004-0.84-0.221-0.84-0.365 0.09-2.082 0.29-0.544 0.49-0.867 0.65-0.932zm-53.554 0.908c-0.579 0.019-1.279 0.212-2.137 0.571-1.751 0.732-2.588 2.029-2.588 4.015 0 2.126 1.514 3.516 4.217 3.869 2.676 0.351 3.567 0.814 3.867 2.008 0.367 1.463-0.274 2.285-1.894 2.424-1.021 0.088-1.685-0.143-2.576-0.892-1.508-1.269-2.023-0.664-1.02 1.199 0.657 1.22 0.877 1.339 2.494 1.338 1.984-0.002 4.005-1.027 4.742-2.405 0.259-0.483 0.471-1.585 0.471-2.447 0-2.172-1.598-3.587-4.477-3.965-2.57-0.337-3.863-1.104-3.863-2.289 0-1.897 2.196-2.484 3.768-1.008 1.268 1.191 1.839 0.625 1.047-1.037-0.46-0.963-1.086-1.412-2.051-1.381zm81.734 1.768c-0.07-0.002-0.12 0.009-0.14 0.035-0.12 0.12 0 0.573 0.27 1.008 0.6 0.959 0.48 1.374-1.93 6.508-1.67 3.562-2.01 4.037-2.89 4.037-2.19 0-0.92 1.033 3.71 3.01 2.83 1.209 5.27 1.044 6.55-0.444 1.11-1.284 1.15-2.925 0.11-4.246l-0.79-1.002 1.18-0.258c2.26-0.495 3.01-2.795 1.53-4.679-0.78-0.984-6.54-3.947-7.6-3.969zm3.73 2.961c0.21 0 0.76 0.368 1.21 0.818 0.92 0.928 0.77 2.56-0.33 3.399-0.74 0.561-1.13 0.576-2.33 0.093l-0.86-0.345 0.96-1.983c0.53-1.09 1.13-1.982 1.35-1.982zm-96.993 0.785c-1.455 0-7.74 3.013-8.008 3.84-0.117 0.36 0.11 0.439 0.779 0.271 0.817-0.205 1.078 0.015 1.959 1.649 3.982 7.389 4.363 8.377 3.447 8.943-0.215 0.133-0.392 0.409-0.392 0.612 0 0.62 0.687 0.423 3.138-0.903 2.376-1.285 3.118-2.295 1.452-1.976-0.749 0.143-1.085-0.16-1.971-1.789-0.643-1.182-0.912-2.059-0.676-2.206 0.216-0.133 1.577 0.472 3.024 1.344 2.928 1.766 3.343 1.842 5.376 0.992 1.554-0.649 1.882-1.367 0.625-1.367-0.437 0-1.805-0.522-3.039-1.16-3.489-1.805-3.381-1.681-2.816-3.242 0.925-2.557-0.494-5.008-2.898-5.008zm105.63 1.961c-0.52 0-0.54 0.661-0.02 0.98 0.7 0.429 0.43 1.359-1.05 3.645-2.13 3.29-3.26 5.638-3.26 6.746 0 1.481 1.36 3.399 3.02 4.277 3.24 1.71 5.8 0.742 8.21-3.103 2.5-3.993 3.21-4.734 4.29-4.463 1.65 0.415 1.05-0.576-1.24-2.043-2.38-1.521-2.95-1.501-2.11 0.07 0.5 0.928 0.43 1.219-0.82 3.537-1.97 3.673-3.62 5.254-5.49 5.254-1.16 0-1.68-0.24-2.34-1.08-1.2-1.524-0.84-3.051 1.66-7.029 1.76-2.809 2.21-3.284 2.96-3.143 0.49 0.092 0.98 0.025 1.09-0.15 0.21-0.341-4.21-3.498-4.9-3.498zm-107.42 0.006c2.117-0.013 3.458 3.165 1.965 4.658-0.454 0.454-0.992 0.824-1.195 0.824s-0.898-1.099-1.543-2.443c-1.256-2.617-1.152-3.028 0.773-3.039zm96.079 2.51c0.19-0.119 0.9 0.329 1.56 0.996 0.99 0.984 1.17 1.413 0.95 2.281-0.15 0.588-0.55 1.376-0.89 1.754-0.74 0.821-2.03 0.886-3.03 0.152-0.71-0.518-0.71-0.601 0.17-2.752 0.49-1.219 1.05-2.313 1.24-2.431zm-105.82 1.414c-0.653 0.074-1.822 0.937-4.918 3.048-2.913 1.987-3.621 3.087-1.674 2.598 0.803-0.201 1.271 0.294 3.957 4.17 2.601 3.753 2.981 4.504 2.594 5.123-0.249 0.399-0.453 0.923-0.453 1.164 0 0.242 0.247 0.345 0.549 0.229 0.986-0.379 8.078-5.414 8.078-5.737 0-0.716-1.217-3.154-1.574-3.154-0.213 0-0.387 0.697-0.387 1.549 0 1.308-0.211 1.71-1.367 2.592-0.753 0.574-1.619 0.947-1.924 0.83s-1.102-1.007-1.77-1.977l-1.212-1.763 1.207-0.86c0.892-0.635 1.32-0.745 1.646-0.42 0.541 0.541 1.459 0.579 1.459 0.061 0-0.21-0.558-1.173-1.24-2.141-1.283-1.82-2.068-2.03-1.67-0.445 0.176 0.702-0.039 1.097-0.945 1.742l-1.17 0.834-1.213-1.646c-0.667-0.906-1.211-1.778-1.211-1.936s0.551-0.68 1.224-1.16c1.101-0.784 1.363-0.823 2.579-0.383 0.744 0.269 1.445 0.396 1.558 0.283s-0.282-0.813-0.877-1.558c-0.543-0.682-0.738-1.101-1.246-1.043zm64.897 1.615c-0.28-0.013-0.57 0.113-1.03 0.371-1.23 0.688-1.55 2.33-0.64 3.248 0.75 0.747 2.58 0.842 3.25 0.168 0.85-0.848 0.56-2.592-0.55-3.32-0.46-0.301-0.75-0.454-1.03-0.467zm-5.03 0.021c-0.15-0.01-0.3-0.006-0.45 0.016-0.41 0.058-0.81 0.237-1.16 0.557-0.89 0.807-0.92 2.006-0.07 2.947 1.26 1.392 3.66 0.513 3.66-1.34 0-1.253-0.94-2.103-1.98-2.18zm9.57 0.295c-0.47 0.015-0.92 0.172-1.23 0.491-0.73 0.722-0.59 2.952 0.21 3.427 1.13 0.674 2.58 0.308 3.2-0.814 0.52-0.925 0.51-1.14-0.09-2.059-0.46-0.695-1.31-1.069-2.09-1.045zm-14.94 0.022c-0.47 0.025-0.9 0.176-1.19 0.469-0.73 0.723-0.59 2.954 0.21 3.419 1.06 0.617 1.99 0.499 2.84-0.361 0.95-0.944 0.98-1.506 0.18-2.658-0.42-0.6-1.27-0.911-2.04-0.869zm20.2 0.445c-0.28-0.013-0.57 0.115-1.03 0.373-1.23 0.688-1.55 2.331-0.63 3.248 0.74 0.747 2.57 0.84 3.24 0.166 0.85-0.848 0.56-2.592-0.55-3.32-0.46-0.301-0.74-0.454-1.03-0.467zm-24.63 0.022c-0.15-0.011-0.31-0.007-0.46 0.015-0.4 0.058-0.8 0.237-1.15 0.557-0.9 0.807-0.92 2.006-0.07 2.947 1.26 1.392 3.66 0.515 3.66-1.338 0-1.253-0.94-2.105-1.98-2.181zm-5 0.707c-1.92 0-2.93 2.69-1.42 3.793 0.39 0.286 1.03 0.521 1.42 0.521 0.86 0 2.28-1.343 2.28-2.156 0-0.814-1.42-2.158-2.28-2.158zm34.49 0.115c-1.55 0.04-2.8 1.783-1.83 3.265 0.84 1.285 2.71 1.272 3.56-0.027 0.73-1.119 0.46-2.385-0.63-2.971-0.37-0.196-0.74-0.276-1.1-0.267zm4.81 1.062c-1.88 0-2.77 2.168-1.48 3.596 0.81 0.892 2.01 0.92 2.95 0.068 1.38-1.251 0.41-3.664-1.47-3.664zm-44.28 0.02c-0.66 0.043-1.31 0.273-1.61 0.666-0.74 0.981-0.66 1.939 0.24 2.842 0.95 0.954 1.86 0.999 2.81 0.136 0.82-0.737 0.95-2.49 0.25-3.193-0.35-0.35-1.03-0.494-1.69-0.451zm90.89 0.959c-0.06-0.008-0.11-0.003-0.14 0.015-0.31 0.195-0.32 0.389-0.01 0.696 0.24 0.234 0.43 0.635 0.43 0.888 0 0.582-6.6 8.793-7.06 8.793-0.19 0-0.46-0.176-0.59-0.392-0.36-0.58-0.98-0.477-0.98 0.162 0 0.305 0.75 1.141 1.67 1.857 0.91 0.716 1.9 1.525 2.18 1.797 0.76 0.725 1.38 0.614 1.05-0.189-0.65-1.591-0.57-1.978 0.81-3.543l1.44-1.645 1.15 0.823c0.87 0.616 1.13 1.083 1.04 1.859-0.18 1.474 0.58 1.29 1.99-0.482 1.28-1.609 1.29-2.482 0.02-1.803-0.59 0.317-1.02 0.216-1.94-0.465-0.65-0.479-1.18-0.995-1.18-1.147 0-0.486 2.54-3.457 2.97-3.478 0.23-0.011 0.91 0.494 1.51 1.121 0.9 0.939 1.05 1.354 0.83 2.352-0.37 1.669 0.52 1.599 1.64-0.131l0.86-1.336-1.45-1.084c-0.8-0.597-2.46-1.949-3.7-3.004-1.08-0.923-2.14-1.607-2.54-1.664zm-95.492 0.197c-2.034 0-2.997 2.575-1.385 3.703 1.115 0.782 1.829 0.771 2.727-0.039 1.39-1.26 0.51-3.664-1.342-3.664zm53.512 0.055c-0.28 0.013-0.56 0.166-1.02 0.467-1.18 0.767-1.36 2.225-0.41 3.175 0.33 0.339 1.03 0.616 1.54 0.616 2.2 0 2.87-2.799 0.92-3.885-0.46-0.259-0.74-0.386-1.03-0.373zm-98.727 1.344c-0.371 0.038-1.004 0.432-1.907 1.187-0.988 0.826-1.796 1.61-1.796 1.744 0 0.566 0.554 0.729 1.058 0.311 0.321-0.266 0.674-0.306 0.861-0.096 0.44 0.493 3.248 7.672 3.071 7.85-0.137 0.136-7.216-3.513-7.643-3.94-0.111-0.111 0.007-0.456 0.264-0.765 0.318-0.384 0.336-0.644 0.057-0.817-0.494-0.305-4.784 3.303-4.491 3.778 0.113 0.182 0.603 0.231 1.088 0.109 0.622-0.156 2.55 0.651 6.543 2.736 5.68 2.967 6.422 3.254 6.801 2.641 0.112-0.182-0.76-3.003-1.938-6.27-2.195-6.087-2.459-7.273-1.716-7.732 0.285-0.177 0.297-0.392 0.033-0.656-0.066-0.066-0.162-0.093-0.285-0.08zm40.41 0.169c-1.982 0-2.8 2.103-1.373 3.53 0.944 0.944 1.506 0.98 2.658 0.174 1.633-1.144 0.745-3.704-1.285-3.704zm63.247 0.042c-0.4-0.027-0.83 0.165-1.4 0.568-1.02 0.712-1.14 2.203-0.26 3.088 0.34 0.339 1.03 0.615 1.54 0.615 1.98 0 2.8-2.103 1.37-3.529-0.47-0.472-0.84-0.716-1.25-0.742zm-67.993 1.623c-0.294 0.023-0.592 0.108-0.877 0.261-1.136 0.608-1.417 1.86-0.674 2.994 1.431 2.185 4.773 0.428 3.693-1.941-0.41-0.901-1.26-1.386-2.142-1.314zm72.083 0.298c-0.46 0.025-0.9 0.177-1.19 0.469-0.67 0.673-0.58 2.286 0.18 3.125 0.84 0.934 1.9 0.911 2.88-0.066 0.94-0.944 0.98-1.507 0.17-2.658-0.42-0.601-1.27-0.911-2.04-0.87zm-76.234 1.608c-0.402-0.027-0.832 0.165-1.408 0.568-0.941 0.659-1.111 1.739-0.465 2.945 0.5 0.934 2.417 1.017 3.291 0.143 0.839-0.839 0.774-1.972-0.168-2.914-0.472-0.472-0.847-0.716-1.25-0.742zm81.354 0.351c-1.19 0-2.47 1.003-2.47 1.934 0 0.35 0.28 1.028 0.61 1.508 0.73 1.032 1.99 1.126 2.99 0.222 1.36-1.235 0.62-3.664-1.13-3.664zm-86.086 2.053c-0.274 0.014-0.559 0.081-0.844 0.211-0.81 0.369-1.015 0.74-1.015 1.824 0 0.883 0.24 1.503 0.685 1.762 0.98 0.571 1.754 0.514 2.777-0.203 1.762-1.234 0.315-3.694-1.603-3.594zm123.12 0.195c-0.26-0.036-0.22 0.286 0.16 0.981 0.36 0.675-0.09 1.271-3.51 4.689-3.47 3.478-4 3.868-4.71 3.487-1.67-0.895-1.2 0.38 0.92 2.506 1.2 1.202 2.37 2.073 2.59 1.935 0.28-0.172 0.28-0.386-0.02-0.678-0.76-0.766-0.45-1.652 1.14-3.203l1.56-1.527 1.02 0.955c0.78 0.73 0.96 1.209 0.8 2.035-0.31 1.531 0.48 1.384 2.24-0.416 1.58-1.613 1.56-2.115-0.07-1.789-0.78 0.155-1.28-0.051-1.99-0.811l-0.96-1.015 1.72-1.756 1.73-1.756 1.13 1.076c0.96 0.911 1.1 1.302 0.94 2.547-0.26 1.957 0.21 2.138 1.42 0.549l1-1.307-3.43-3.408c-1.98-1.977-3.25-3.032-3.68-3.094zm-33.03 0.125c-0.66 0.044-1.31 0.272-1.61 0.664-0.74 0.982-0.66 1.942 0.24 2.844 0.95 0.954 1.86 0.997 2.81 0.135 0.82-0.737 0.95-2.49 0.25-3.193-0.35-0.351-1.03-0.493-1.69-0.45zm-94.02 2.161c-0.435-0.022-0.897 0.093-1.336 0.38-1.272 0.834-1.139 2.892 0.231 3.571 1.134 0.562 2.652 0.008 3.002-1.096 0.478-1.505-0.592-2.791-1.897-2.855zm98.58 0.171c-2.04 0-3.08 2.13-1.75 3.596 1.3 1.44 3.66 0.396 3.66-1.619 0-1.297-0.65-1.977-1.91-1.977zm-133.32 1.959c-0.195 0-1.254 0.987-2.355 2.192-1.973 2.158-2.335 3.325-0.772 2.488 0.982-0.525 1.42-0.235 5.793 3.844 2.952 2.754 3.248 3.156 2.856 3.889-0.241 0.449-0.323 0.931-0.182 1.072 0.368 0.368 0.516 0.257 2.568-1.957 2.22-2.395 2.564-3.596 0.698-2.43-0.669 0.418-1.191 0.067-4.602-3.1-3.42-3.175-3.836-3.707-3.748-4.785 0.055-0.666-0.061-1.213-0.256-1.213zm30.326 0.481c-0.651 0.051-1.299 0.413-1.707 1.142-0.517 0.926-0.506 1.139 0.096 2.057 1.175 1.794 3.789 1.014 3.789-1.131 0-1.377-1.092-2.153-2.178-2.068zm106.97 0.324c-0.63-0.028-1.25 0.118-1.59 0.451-0.67 0.673-0.58 2.287 0.18 3.125 0.85 0.935 1.91 0.911 2.88-0.066 0.94-0.942 1.01-2.075 0.17-2.914-0.36-0.365-1-0.567-1.64-0.596zm-110.95 2.332c-1.495 0-2.656 2.788-1.6 3.844 0.259 0.259 1.019 0.471 1.688 0.471 1.5 0 2.156-0.615 2.156-2.018 0-1.07-1.199-2.297-2.244-2.297zm114.81 0.426c-0.43 0.006-0.83 0.21-1.28 0.615-0.88 0.797-0.93 2.223-0.1 3.049 0.34 0.339 1.03 0.617 1.54 0.617 2.03 0 2.92-2.559 1.29-3.703-0.56-0.391-1.02-0.584-1.45-0.578zm-146.88 2.791c-0.235-0.129-0.856 0.478-1.884 1.826-1.889 2.476-1.953 3.599-0.127 2.217 0.668-0.506 1.047-0.349 4.027 1.678 2.959 2.013 3.181 2.248 2.203 2.33-0.598 0.05-3.386 0.293-6.197 0.541l-5.111 0.449-1.071 1.49c-1.092 1.52-0.834 2.551 0.344 1.373 0.337-0.337 0.7-0.611 0.807-0.611 0.475 0 2.157 1.088 5.355 3.469 2.519 1.875 3.434 2.785 3.389 3.373-0.034 0.442-0.042 0.936-0.018 1.097 0.102 0.687 0.752 0.172 2.155-1.707 0.931-1.247 1.354-2.139 1.125-2.369-0.23-0.229-0.559-0.14-0.872 0.237-0.276 0.332-0.7 0.604-0.943 0.605s-1.926-1.013-3.738-2.254l-3.295-2.256 2.119-0.256c1.166-0.14 3.74-0.271 5.721-0.293 3.494-0.037 5.613-0.464 5.613-1.129 0-0.178-2.212-1.979-4.916-4.003-4.63-3.466-4.902-3.745-4.674-4.784 0.133-0.604 0.13-0.946-0.012-1.023zm28.108 0.041c-0.16 0.003-0.318 0.029-0.473 0.078-1.241 0.394-1.815 1.933-1.17 3.139 0.387 0.722 0.843 0.976 1.75 0.976 1.516 0 2.168-0.61 2.168-2.029 0-1.163-1.158-2.189-2.275-2.164zm122.81 0.379c-0.11-0.008-0.23-0.008-0.34 0.002-0.26 0.021-0.53 0.091-0.8 0.213-0.77 0.351-0.98 0.735-0.98 1.806 0 0.883 0.25 1.503 0.69 1.762 1.08 0.628 2.27 0.491 3.03-0.346 1.25-1.39 0.05-3.325-1.6-3.437zm28.54 1.14c-0.75-0.058-2.55 0.445-7.13 1.887-4.32 1.362-5.49 1.594-6.35 1.27-1.87-0.704-1.74-0.206 0.8 3.004 0.43 0.549 0.93 0.82 1.2 0.652 0.35-0.212 0.35-0.426 0.03-0.814-0.46-0.556 0-0.935 2.13-1.743 0.88-0.334 1.12-0.219 2.03 0.981 0.94 1.225 0.99 1.476 0.56 2.523-0.68 1.627-1.43 2.194-2.13 1.61-0.33-0.271-0.64-0.311-0.78-0.094-0.12 0.202 0.61 1.435 1.63 2.742s2.99 4.237 4.36 6.51c2.34 3.86 2.57 4.117 3.53 3.889 2.72-0.649 3.4-2.018 0.89-1.778-1.37 0.131-1.6 0.015-2.36-1.213-0.46-0.746-0.83-1.551-0.83-1.789 0-0.416 1.32-1.334 6.57-4.554 2.33-1.435 2.49-1.474 3.19-0.834 1.43 1.291 1.31-0.157-0.22-2.6-1.49-2.372-2.39-2.881-2.18-1.225 0.09 0.699-0.68 1.342-4.34 3.627-2.45 1.528-4.65 2.778-4.89 2.778-0.59 0-1.66-1.571-1.66-2.44 0-0.384 1.49-3.193 3.32-6.24s3.22-5.71 3.09-5.918c-0.08-0.13-0.21-0.211-0.46-0.231zm-154.76 1.889c-1.909 0-2.812 2.157-1.508 3.598 0.882 0.975 2.314 0.902 3.055-0.154 1.151-1.644 0.343-3.444-1.547-3.444zm151.59 0.086l-0.67 1.035c-1.66 2.585-1.53 2.486-2.25 1.692-0.98-1.082-0.81-1.387 1.14-2.086l1.78-0.641zm-21.8 0.209c-2 0-2.82 2.176-1.37 3.627 0.94 0.944 1.5 0.981 2.65 0.174 1.66-1.16 0.77-3.801-1.28-3.801zm-133.36 3.156c-0.665 0-1.344 0.316-1.814 1.02-0.561 0.84-0.29 2.159 0.57 2.762 0.48 0.335 1.058 0.611 1.285 0.611 0.86 0 2.157-1.256 2.151-2.082-0.01-1.429-1.082-2.31-2.192-2.311zm136.74 0.284c-1.82 0.051-2.89 2.661-1.14 3.89 1.15 0.801 1.56 0.771 2.59-0.189 1.33-1.243 1.04-2.924-0.62-3.555-0.29-0.109-0.56-0.154-0.83-0.146zm-139.74 3.359c-0.84-0.013-1.783 0.423-2.213 1.193-0.517 0.926-0.506 1.141 0.095 2.059 0.767 1.17 2.595 1.406 3.399 0.437 0.634-0.764 0.627-2.379-0.016-3.154-0.296-0.357-0.762-0.527-1.265-0.535zm143.15 0.383c-0.61-0.024-1.24 0.233-1.67 0.845-0.81 1.152-0.77 1.715 0.17 2.659 1.43 1.426 3.53 0.608 3.53-1.373 0-1.269-1-2.091-2.03-2.131zm-171.4 3.291c-0.338-0.074-0.924 0.669-1.636 2.16-1.169 2.446-1.122 3.355 0.119 2.232 0.396-0.358 0.93-0.652 1.187-0.652 1.004 0 6.688 3.162 7.469 4.154 1.112 1.414 1.059 3.1-0.137 4.295-1.407 1.408-2.809 1.216-6.949-0.953-2.981-1.562-3.656-2.081-3.656-2.809 0-1.673-0.783-1.14-2.074 1.415-1.354 2.678-1.363 3.879-0.02 2.664 0.744-0.673 0.886-0.637 4.176 1.052 1.874 0.962 3.76 1.864 4.191 2.004 2.625 0.854 4.704-0.11 6.088-2.824 0.973-1.906 0.979-3.362 0.02-4.936-0.888-1.456-1.611-2.004-5.52-4.185-2.393-1.335-2.941-1.817-2.941-2.586 0-0.647-0.113-0.987-0.317-1.031zm24.891 0.205c-1.397-0.007-2.794 1.309-1.996 2.824 0.263 0.5 0.673 1.037 0.91 1.195 1.819 1.215 4.011-1.215 2.785-3.086-0.429-0.654-1.064-0.93-1.699-0.933zm149.91 0.394c-0.88-0.056-1.85 0.221-2.14 0.764-0.6 1.126-0.49 1.894 0.38 2.77 0.95 0.943 1.51 0.98 2.66 0.173 0.96-0.672 1.18-2.452 0.4-3.232-0.29-0.287-0.78-0.441-1.3-0.475zm-153.03 3.58c-0.454 0.044-0.917 0.235-1.322 0.602-0.892 0.807-0.92 2.007-0.069 2.947 1.298 1.434 3.665 0.504 3.665-1.439 0-1.193-0.842-1.992-1.825-2.106-0.147-0.017-0.297-0.018-0.449-0.004zm155.64 0.395c-0.68-0.04-1.37 0.206-1.8 0.822-0.8 1.152-0.77 1.715 0.18 2.658 0.43 0.432 1.13 0.784 1.56 0.784 0.88 0 2.36-1.298 2.36-2.069 0-1.267-1.15-2.129-2.3-2.195zm20.5 2.334c-3.3 0.147-6.51 2.404-7.1 5.996-0.44 2.713 1.67 6.363 4.34 7.527 5.46 2.377 11.95-3.194 9.92-8.511-0.36-0.941-1.12-2.213-1.69-2.83-1.49-1.599-3.49-2.27-5.47-2.182zm-178.55 1.312c-0.337-0.016-0.686 0.054-1.024 0.235-1.572 0.842-1.604 3.114-0.052 3.806 1.136 0.507 2.154 0.188 2.867-0.9 0.896-1.368-0.333-3.068-1.791-3.141zm160.48 0.415c-0.85 0.036-1.68 0.559-1.95 1.63-0.21 0.851-0.06 1.238 0.78 1.959 1.53 1.317 3.39 0.513 3.39-1.464 0-1.42-1.13-2.173-2.22-2.125zm20.16 0.81c2.58-0.023 3.63 0.943 3.63 3.344 0 1.979-1.87 3.899-4.9 5.031-2.47 0.924-3.19 0.984-4.32 0.367-4.32-2.361-0.27-8.688 5.59-8.742zm-183.52 3.17c-0.132 0.007-0.259 0.025-0.379 0.057-1.701 0.444-1.845 3.153-0.207 3.888 1.733 0.778 3.591-1.034 2.902-2.83-0.248-0.646-1.392-1.163-2.316-1.115zm166.05 0.236c-0.11-0.006-0.22-0.002-0.32 0.01-0.29 0.033-0.55 0.135-0.77 0.313-1.19 0.993-1.44 1.928-0.77 2.945 1.4 2.143 4.87 0.331 3.81-1.992-0.34-0.75-1.17-1.234-1.95-1.276zm-167.97 4.026c-0.252 0.013-0.517 0.084-0.787 0.226-1.706 0.899-1.978 2.233-0.713 3.498 0.944 0.944 1.506 0.981 2.658 0.174 1.766-1.237 0.608-3.992-1.158-3.898zm170.13 0.369c-1.52-0.082-2.76 1.645-1.87 3.318 0.5 0.929 2.68 1.15 3.47 0.352 0.84-0.837 0.56-2.593-0.52-3.303-0.36-0.235-0.73-0.348-1.08-0.367zm-172.33 4.185c-0.455 0.045-0.917 0.237-1.322 0.604-0.892 0.807-0.92 2.006-0.069 2.947 1.298 1.434 3.664 0.504 3.664-1.439 0-1.193-0.841-1.994-1.824-2.108-0.147-0.017-0.298-0.018-0.449-0.004zm174.51 0.377c-0.79 0.041-1.63 0.48-2.03 1.2-0.52 0.925-0.51 1.14 0.09 2.058 0.73 1.112 2.48 1.403 3.32 0.555 0.66-0.651 0.6-2.864-0.09-3.432-0.35-0.287-0.81-0.405-1.29-0.381zm-189.51 0.807c-0.423 0.046-0.801 0.249-1.037 0.572-0.302 0.412-1.038 0.711-1.787 0.725-1.11 0.02-1.291 0.171-1.405 1.166-0.084 0.741 0.089 1.264 0.493 1.49 0.412 0.231 0.546 0.654 0.396 1.252-0.142 0.567 0.013 1.142 0.418 1.547 0.827 0.827 1.537 0.817 2.389-0.035 0.374-0.374 1.058-0.631 1.519-0.571 1.255 0.165 2.351-1.207 1.795-2.246-0.24-0.449-0.596-0.816-0.791-0.816s-0.41-0.662-0.476-1.471c-0.101-1.219-0.286-1.493-1.081-1.605-0.147-0.021-0.292-0.023-0.433-0.008zm204.91 1.143c-0.53 0.005-1.08 0.195-1.39 0.566-0.27 0.322-0.4 0.929-0.29 1.35 0.12 0.455-0.09 1.035-0.54 1.435-0.4 0.369-0.74 0.897-0.74 1.172 0 0.883 1.24 1.798 2.14 1.574 0.55-0.139 1.07 0.056 1.51 0.561 0.78 0.913 1.06 0.947 2.02 0.246 0.5-0.369 0.66-0.844 0.52-1.582-0.15-0.776 0-1.164 0.55-1.461 0.52-0.278 0.72-0.735 0.64-1.457-0.1-0.888-0.34-1.071-1.5-1.18-0.75-0.071-1.51-0.381-1.68-0.687-0.21-0.366-0.71-0.543-1.24-0.537zm-191.53 2.326c-1.387 0.021-2.747 1.337-1.963 2.824 0.263 0.5 0.673 1.037 0.91 1.195 0.765 0.511 1.784 0.32 2.588-0.484 0.944-0.944 0.98-1.505 0.174-2.656-0.442-0.631-1.079-0.889-1.709-0.879zm177.69 0.42c-0.63-0.029-1.25 0.116-1.59 0.449-0.78 0.78-0.56 2.56 0.4 3.232 1.15 0.807 1.72 0.77 2.66-0.174 0.94-0.941 1.01-2.072 0.17-2.912-0.37-0.364-1.01-0.567-1.64-0.595zm-179.69 4.293c-0.415 0.031-0.8 0.18-1.09 0.47-0.673 0.673-0.581 2.287 0.178 3.125 0.357 0.399 0.975 0.719 1.373 0.719 0.902 0 2.291-1.349 2.291-2.225 0-1.238-1.508-2.185-2.752-2.089zm181.09 0.412c-0.59 0.021-1.14 0.173-1.42 0.449-0.78 0.78-0.56 2.56 0.4 3.233 1.07 0.75 1.52 0.76 2.45 0.08 0.88-0.641 0.99-2.903 0.18-3.419-0.4-0.251-1.02-0.364-1.61-0.343zm22.62 2.724c-0.33 0-0.59 0.327-0.59 0.727 0 0.741-5.25 7.111-5.86 7.111-0.72 0-5-3.54-5.43-4.48-1.11-2.44-1.47-0.42-0.64 3.6 0.21 1.01 0.95 1.21 0.95 0.25 0-0.79 0.52-0.59 3.43 1.27 1.96 1.25 2.16 1.48 1.47 1.75-1.47 0.57-3.8 0.4-4.33-0.33-0.88-1.19-1.1-0.19-0.6 2.65 0.34 1.87 0.67 2.74 1.04 2.74 0.31 0 0.56-0.34 0.56-0.77 0-0.9 0.13-0.94 6.08-1.93 4.49-0.74 5.29-0.71 5.29 0.2 0 0.3 0.27 0.54 0.59 0.54 0.61 0 0.58-0.87-0.16-4.7-0.3-1.53-0.95-1.83-1.14-0.52-0.14 0.98-0.46 1.14-3.06 1.52l-1.92 0.28 0.78-0.94c0.43-0.51 1.64-1.87 2.69-3.01 1.46-1.59 1.85-2.28 1.68-2.94-0.13-0.47-0.24-1.35-0.24-1.94 0-0.694-0.21-1.078-0.59-1.078zm-216.38 0.846c-0.557-0.014-0.191 0.952 0.763 1.712 0.88 0.7 0.988 1 0.745 2.11-0.266 1.21-0.366 1.28-1.518 1.04-0.679-0.14-3.071-0.6-5.316-1.02-2.246-0.42-4.155-0.83-4.245-0.92-0.089-0.09-0.209-0.48-0.265-0.87-0.156-1.06-0.962-1.12-1.16-0.08-0.096 0.5-0.368 1.85-0.604 3-0.2362 1.15-0.3301 2.26-0.2089 2.45 0.3359 0.55 0.9569 0.43 0.9569-0.18 0-1.55 2.494-1.47 9.858 0.3l1.818 0.43-0.445 1.38c-0.348 1.07-0.686 1.4-1.526 1.49-0.593 0.07-1.078 0.37-1.078 0.66 0 0.3 0.485 0.61 1.078 0.7 2.549 0.39 2.945 0.32 2.737-0.48-0.11-0.41 0.131-2.4 0.537-4.41 0.405-2.01 0.739-4.05 0.742-4.53 0.002-0.49 0.181-0.88 0.396-0.88 0.216 0 0.391-0.25 0.391-0.55 0-0.31-0.593-0.65-1.4-0.81-0.771-0.14-1.651-0.36-1.959-0.47-0.119-0.05-0.218-0.07-0.297-0.072zm11.988 0.732c-0.646-0.05-1.295 0.13-1.666 0.58-0.717 0.86-0.597 2.6 0.223 3.2 1.03 0.76 1.986 0.64 2.898-0.33 0.96-1.03 0.99-1.45 0.19-2.59-0.357-0.51-0.999-0.8-1.645-0.86zm183.18 0.38c-1.88 0-2.77 2.17-1.47 3.6 0.8 0.89 2 0.92 2.94 0.07 1.39-1.25 0.42-3.67-1.47-3.67zm-184.42 4.32c-1.735 0-2.637 2.43-1.371 3.69 1.256 1.26 3.697 0.18 3.697-1.63 0-0.76-1.472-2.06-2.326-2.06zm185.58 0.51c-0.86-0.04-1.77 0.37-2.16 1.25-0.35 0.76-0.31 1.15 0.23 1.97 1.31 2 4.47 0.51 3.86-1.82-0.24-0.9-1.06-1.37-1.93-1.4zm-186.35 4.42c-0.35 0.02-0.711 0.13-1.061 0.35-1.021 0.67-1.273 2.45-0.461 3.26 0.798 0.8 2.972 0.58 3.469-0.35 0.867-1.62-0.43-3.33-1.947-3.26zm187.1 0.58c-0.79 0.05-1.63 0.49-2.04 1.23-0.55 0.99-0.53 1.12 0.35 2.06 1.09 1.16 1.49 1.22 2.68 0.39 1-0.71 1.18-2.57 0.3-3.29-0.35-0.29-0.81-0.41-1.29-0.39zm-209.35 1.59c-0.2943 0.07-0.504 1.06-0.6347 2.99-0.2175 3.21 0.1892 4.49 0.8633 2.71 0.423-1.11 1.608-1.33 4.287-0.8l1.227 0.25v2.71 2.72l-2.647-0.12c-2.405-0.11-2.6594-0.2-2.7733-1-0.2051-1.44-1.2461-1.08-1.2461 0.44 0 0.72-0.1129 2.13-0.25 3.13-0.2022 1.48-0.1374 1.82 0.3457 1.82 0.3277 0 0.688-0.35 0.8008-0.78 0.1844-0.71 0.5149-0.78 3.2809-0.74 1.692 0.03 4.224 0.16 5.625 0.29 2.256 0.22 2.563 0.35 2.674 1.14 0.069 0.48 0.377 0.88 0.686 0.88 0.439 0 0.56-0.68 0.56-3.14 0-3.12-0.368-3.86-1.176-2.35-0.341 0.64-0.821 0.78-2.562 0.78-2.417 0-2.361 0.11-1.889-3.82l0.248-2.06h2.112c1.905 0 2.148 0.1 2.492 1 0.21 0.56 0.559 0.9 0.775 0.77 0.548-0.34 0.513-6.08-0.037-6.08-0.236 0-0.52 0.35-0.633 0.78-0.181 0.69-0.533 0.79-3.002 0.78-1.538 0-4.003-0.11-5.476-0.25-2.334-0.22-2.725-0.37-3.029-1.18-0.2379-0.62-0.445-0.91-0.6216-0.87zm231.21 1.8c-0.25-0.07-0.63 0.24-1.13 0.91-0.47 0.63-1.76 1.77-2.87 2.51l-2.02 1.36-1.32-1.15c-1.31-1.16-2.24-1.37-3.95-0.91-1.52 0.41-2.05 2.05-2.05 6.39 0 3.1 0.12 3.94 0.55 3.94 0.3 0 0.62-0.32 0.73-0.72 0.17-0.64 0.77-0.75 5.37-0.95 2.86-0.13 5.44-0.14 5.74-0.02 0.31 0.11 0.55 0.56 0.55 0.98 0 0.45 0.21 0.71 0.49 0.62 0.27-0.09 0.48-0.37 0.46-0.63-0.03-0.25-0.07-1.6-0.1-3-0.06-2.46-0.68-3.47-1.11-1.81-0.2 0.76-1.6 1.22-3.71 1.22-1.81 0-1.34-0.94 1.36-2.7 2.59-1.69 3.4-2.82 3.4-4.75 0-0.79-0.13-1.23-0.39-1.29zm-209.49 0.96c-0.972 0.02-1.859 0.75-1.859 2.03 0 0.7 0.212 1.49 0.471 1.75 0.837 0.84 2.591 0.56 3.302-0.53 0.561-0.85 0.58-1.13 0.133-1.97-0.482-0.9-1.29-1.3-2.047-1.28zm187.9 0.39c-0.41 0.02-0.84 0.17-1.26 0.49-0.78 0.59-0.91 2.59-0.21 3.29 0.67 0.68 2.29 0.58 3.12-0.17 1.66-1.5 0.15-3.72-1.65-3.61zm12.13 4.08c1.83 0 2.27 0.33 2.77 2.06l0.36 1.25h-2.92c-2.78 0-2.91-0.04-2.91-0.9 0-1.58 0.93-2.41 2.7-2.41zm-200.25 0.37c-1.766-0.09-2.923 2.66-1.159 3.9 0.967 0.67 2.2 0.47 2.953-0.49 0.925-1.17 0.548-2.36-1.007-3.18-0.271-0.14-0.535-0.22-0.787-0.23zm188.94 0.6c-1.24-0.1-2.76 0.81-2.76 2.01 0 0.4 0.35 1.07 0.78 1.51 0.96 0.95 1.86 1 2.81 0.13 0.82-0.73 0.96-2.49 0.25-3.19-0.28-0.29-0.66-0.43-1.08-0.46zm-189 4.47c-0.683 0.04-1.376 0.32-1.668 0.77-0.45 0.68-0.35 2.38 0.17 2.9 0.823 0.83 2.59 0.56 3.277-0.49 0.739-1.12 0.464-2.38-0.652-2.98-0.312-0.17-0.717-0.23-1.127-0.2zm188.42 0.34c-1.63 0.09-2.84 2.03-1.58 3.43 0.78 0.86 2.52 1.02 3.24 0.3 0.26-0.26 0.47-1.03 0.47-1.7 0-0.91-0.25-1.37-0.97-1.75-0.4-0.21-0.79-0.29-1.16-0.28zm-197.54 3.41c-0.207 0-0.465 0.35-0.576 0.77-0.111 0.43-0.492 0.86-0.846 0.98-0.513 0.16-8.741 0.98-9.967 0.99-0.167 0.01-0.4706-0.43-0.6756-0.97s-0.574-0.98-0.8203-0.98c-0.3188 0-0.3752 0.87-0.1973 3.04 0.5639 6.85 0.6761 7.49 1.3472 7.67 0.358 0.1 1.223 0.19 1.924 0.22 1.657 0.06 1.653-0.75-0.008-1.52-1.158-0.54-1.275-0.76-1.382-2.62l-0.118-2.03 2.147-0.27c2.602-0.32 2.988-0.12 2.988 1.56 0 1-0.194 1.36-0.824 1.52-0.84 0.22-0.862 1.28-0.025 1.21 0.251-0.02 1.252-0.07 2.222-0.1 1.835-0.06 2.512-0.95 1.022-1.34-0.73-0.19-1.544-2.44-1.059-2.93 0.129-0.13 1.215-0.31 2.414-0.41l2.18-0.18-0.121 1.91c-0.098 1.54-0.292 1.99-1.004 2.3-1.392 0.61-1.138 1.53 0.342 1.23 0.674-0.13 1.494-0.25 1.822-0.25 0.505 0 0.554-0.48 0.33-3.16-0.405-4.86-0.704-6.64-1.115-6.64zm211.42 0.39c-2.12 0.07-4.1 0.98-5.35 2.61-2.73 3.58-1.03 9.4 3.21 10.95 0.97 0.35 2.37 0.5 3.68 0.39 2.83-0.24 4.67-1.7 5.7-4.53 0.65-1.79 0.69-2.3 0.28-3.84-0.65-2.42-1.71-3.79-3.71-4.76-1.23-0.59-2.54-0.86-3.81-0.82zm-201.98 0.78c-0.635 0-1.27 0.28-1.699 0.94-0.666 1.01-0.301 2.73 0.662 3.11 1.386 0.56 2.286 0.19 3.033-1.22 0.799-1.52-0.598-2.84-1.996-2.83zm187.48 0.4c-0.41 0.03-0.8 0.18-1.09 0.47-0.67 0.67-0.58 2.29 0.18 3.13 0.35 0.39 0.97 0.71 1.37 0.71 0.9 0 2.29-1.35 2.29-2.22 0-1.24-1.51-2.18-2.75-2.09zm14.22 1.94c2.25-0.06 4.68 0.54 5.9 1.76 0.39 0.39 0.67 1.28 0.67 2.14 0 1.63-0.97 2.83-2.87 3.54-2.72 1.04-7.5-0.06-8.51-1.95-0.56-1.05-0.26-3.29 0.54-4.1 0.89-0.88 2.53-1.34 4.27-1.39zm-201.11 2.52c-0.355 0.03-0.729 0.15-1.099 0.4-1.084 0.71-1.363 2.46-0.526 3.3 0.824 0.82 2.59 0.56 3.277-0.49 1.057-1.62-0.115-3.32-1.652-3.21zm186.99 0.34c-1.6-0.13-3.18 1.97-1.87 3.42 0.8 0.88 2.54 1.06 3.27 0.33s0.55-2.47-0.33-3.27c-0.33-0.3-0.7-0.45-1.07-0.48zm-186.34 4.22c-0.236 0-0.862 0.43-1.391 0.96-1.207 1.21-1.203 1.58 0.025 2.81 0.72 0.72 1.223 0.91 1.862 0.72 0.989-0.29 1.857-1.24 1.857-2.04 0-0.63-1.746-2.45-2.353-2.45zm185.87 0.79c-1.24-0.09-2.76 0.82-2.76 2.01 0 0.4 0.35 1.08 0.79 1.51 0.95 0.96 1.85 1 2.81 0.14 0.81-0.74 0.95-2.49 0.24-3.2-0.28-0.28-0.66-0.42-1.08-0.46zm8.22 1.52c-0.33 0.1-0.72 1.32-1.29 3.86-0.27 1.18 0.35 1.51 0.9 0.49 0.43-0.8 0.43-0.8 1.49-0.03 0.58 0.43 1.58 1.21 2.22 1.73l1.15 0.95-2.2 0.64c-2.75 0.8-3.45 0.8-3.45 0.02 0-0.35-0.22-0.55-0.49-0.46-0.45 0.15-1.34 3.08-1.43 4.7-0.04 0.83 0.48 0.89 1.12 0.13 0.8-0.97 6.99-2.69 8.68-2.42 2.64 0.42 3.49 0.91 3.49 1.99 0 1.85 0.68 1 1.32-1.66 0.36-1.45 0.65-2.95 0.65-3.33-0.01-0.94-0.68-0.87-0.98 0.1-0.29 0.9-0.86 0.95-3.44 0.28-2.16-0.56-6.8-4.42-7.19-5.99-0.18-0.71-0.35-1.06-0.55-1zm-193.13 2.87c-0.652 0.05-1.3 0.42-1.707 1.15-0.517 0.92-0.509 1.14 0.093 2.05 1.176 1.8 3.791 1.02 3.791-1.13 0-1.37-1.092-2.15-2.177-2.07zm182.96 0.33c-0.45 0.04-0.86 0.18-1.12 0.45-0.73 0.72-0.59 2.95 0.21 3.42 2.3 1.34 4.73-1.24 2.98-3.17-0.46-0.51-1.32-0.76-2.07-0.7zm-194.72 2.47c-1.605 0.13-3.111 1.61-3.895 4.25-0.33 1.11-0.892 2.34-1.25 2.73-1.586 1.76-4.114 0-3.258-2.26 0.236-0.63 0.789-1.52 1.229-1.99 1.221-1.3 0.557-1.73-1.291-0.84l-1.612 0.78 0.172 2.38c0.155 2.13 0.318 2.51 1.608 3.69 1.972 1.81 3.772 1.81 5.568 0.02 0.955-0.96 1.374-1.8 1.582-3.19 0.467-3.12 2.609-4.41 3.94-2.38 0.683 1.05 0.704 0.98-1.2 3.57-0.624 0.85-0.025 0.99 1.495 0.35 1.295-0.54 1.433-0.74 1.433-2.1 0-0.92-0.349-2.02-0.894-2.83-1.072-1.59-2.379-2.29-3.627-2.18zm13.156 1.9c-0.362-0.01-0.743 0.08-1.121 0.28-1.136 0.61-1.419 1.86-0.676 2.99 0.849 1.3 2.716 1.32 3.555 0.04 1.009-1.54-0.191-3.29-1.758-3.31zm180.75 0.38c-1.6 0-2.83 1.7-1.81 3.25 0.69 1.05 1.76 1.26 3.01 0.59 1.09-0.58 1.05-2.94-0.06-3.53-0.38-0.21-0.77-0.3-1.14-0.31zm-179.2 4.32c-1.6-0.01-2.823 1.69-1.807 3.24 0.71 1.09 2.464 1.37 3.301 0.53 0.798-0.8 0.579-2.97-0.35-3.47-0.386-0.21-0.775-0.3-1.144-0.3zm177.63 0.39c-1.6-0.01-2.82 1.69-1.81 3.25 0.71 1.08 2.47 1.36 3.3 0.52 0.8-0.8 0.58-2.97-0.35-3.47-0.38-0.21-0.77-0.3-1.14-0.3zm-186.76 1.33c-0.398-0.04-1.079 0.1-1.987 0.41-1.976 0.67-2.387 1.33-0.833 1.33 1.14 0 2.548 1.25 2.548 2.27 0 0.54-1.143 1.13-4.966 2.55l-4.967 1.85-0.873-0.82c-1.341-1.26-1.366-0.45-0.092 2.87 0.64 1.67 1.312 3.04 1.496 3.04s0.389-0.56 0.457-1.25c0.119-1.2 0.287-1.31 4.828-3.11 2.588-1.03 4.918-1.88 5.178-1.89s0.595 0.62 0.744 1.42c0.226 1.2 0.127 1.55-0.602 2.14-1.313 1.07-0.651 1.62 1.073 0.9 1.799-0.75 2.378-1.28 1.806-1.66-0.615-0.4-3.818-8.97-3.529-9.43 0.23-0.38 0.116-0.58-0.281-0.62zm10.904 2.91c-1.908 0-2.812 2.16-1.508 3.6 0.795 0.88 1.646 0.91 2.793 0.11 1.633-1.15 0.745-3.71-1.285-3.71zm184.42 0.21c-0.56 0.18-2.28 3.34-2.28 4.29 0 0.77 0.74 0.78 1.03 0.01 0.34-0.89 0.97-0.7 2.6 0.76 0.81 0.73 2.13 1.88 2.94 2.54l1.47 1.22-4.12-0.24c-2.27-0.12-4.36-0.3-4.66-0.4-0.3-0.09-0.8 0.05-1.11 0.31-0.47 0.39 0.03 1.02 3.06 3.84l3.62 3.38-4.19-0.57c-3.82-0.52-4.19-0.65-4.09-1.36 0.24-1.69-0.76-0.94-1.77 1.33-1.41 3.19-1.4 3.58 0.1 2.64 0.6-0.37 2.04-0.31 6.95 0.32 4.31 0.55 6.37 0.67 6.74 0.39 0.41-0.32-0.26-1.17-3.08-3.91l-3.6-3.5 2.68 0.26c1.47 0.14 3.67 0.36 4.88 0.49 3.57 0.38 3.29-0.31-2.25-5.53-3.68-3.47-4.82-4.77-4.65-5.31 0.12-0.39 0.05-0.82-0.17-0.95-0.03-0.02-0.06-0.02-0.1-0.01zm-10.47 0.18c-0.68 0.02-1.34 0.27-1.6 0.76-0.58 1.09-0.5 2.02 0.24 2.84 1.84 2.03 4.79-0.71 3.12-2.91-0.36-0.48-1.07-0.7-1.76-0.69zm-172.07 4.1c-0.351 0.02-0.716 0.13-1.074 0.37-1.053 0.69-1.264 1.75-0.592 3.01 0.582 1.09 2.942 1.05 3.535-0.06 0.896-1.67-0.347-3.4-1.869-3.32zm170.1 0.22c-1.57 0-2.65 2.71-1.53 3.84 1.21 1.21 3.84 0.02 3.84-1.72 0-0.93-1.3-2.12-2.31-2.12zm-167.99 4.15c-1.473 0.1-2.567 1.73-1.649 3.13 0.885 1.35 3.218 1.36 3.729 0.01 0.5-1.31 0.115-2.42-1.022-2.93-0.36-0.17-0.719-0.23-1.058-0.21zm165.79 0.45c-2.08 0-2.88 2.12-1.37 3.63 0.95 0.95 1.51 0.98 2.66 0.18 1.02-0.72 1.18-2.57 0.28-3.32-0.32-0.26-1.03-0.49-1.57-0.49zm-175.16 3.3c-0.971-0.03-2.834 0.07-4.785 0.26-5.873 0.58-8.171 0.59-8.732 0.03-0.24-0.24-0.616-0.33-0.836-0.19-0.247 0.15 0.003 1.01 0.652 2.25 1.032 1.97 1.918 2.55 1.75 1.14-0.061-0.51 0.256-0.78 1.127-0.96 2.196-0.43 2.539-0.29 3.281 1.35l0.717 1.59-1.222 1.22c-1.043 1.05-1.314 1.15-1.844 0.71-1.184-0.98-1.143 0.03 0.101 2.55 1.335 2.71 2.038 3.21 2.051 1.46 0.006-0.78 0.718-1.85 2.553-3.82 5.962-6.43 6.584-7.23 5.832-7.52-0.096-0.04-0.321-0.06-0.645-0.07zm12.053 0.63c-2 0-2.824 2.17-1.373 3.62 0.431 0.43 1.05 0.79 1.373 0.79 0.814 0 2.156-1.42 2.156-2.28 0-1.18-0.967-2.13-2.156-2.13zm160.47 0.19c-0.36 0.03-0.73 0.18-1.07 0.48-0.88 0.8-1.05 2.54-0.32 3.27s2.46 0.55 3.26-0.33c1.31-1.45-0.27-3.55-1.87-3.42zm-176.5 0.69c0.513 0.04 0.309 0.39-0.442 1.17-1.36 1.42-1.518 1.44-2.064 0.24-0.392-0.86-0.329-0.95 0.769-1.17 0.862-0.17 1.429-0.26 1.737-0.24zm18.738 3.13c-1.857 0-2.825 2.38-1.506 3.7 1.244 1.24 3.696 0.27 3.696-1.47 0-1.09-1.117-2.23-2.19-2.23zm-11.432 0.2c-0.318-0.01-0.824 0.19-1.64 0.62-1.838 0.96-1.927 1.79-0.174 1.61 1.115-0.11 2.249 0.66 2.564 1.74 0.164 0.56-8.063 6.03-9.072 6.03-0.413 0-0.861-0.18-0.994-0.39-0.315-0.51-0.98-0.51-0.98 0 0 0.22 0.749 1.54 1.666 2.93 0.916 1.4 1.843 2.48 2.058 2.4 0.416-0.15 0.414-0.41-0.008-1.5-0.208-0.53 0.677-1.28 4.289-3.62 2.503-1.63 4.696-2.96 4.875-2.96 0.377 0 1.235 1.75 1.235 2.52 0 0.29-0.271 0.75-0.604 1.03-0.405 0.33-0.474 0.63-0.211 0.89 0.264 0.27 0.928 0.02 2.012-0.73 1.38-0.95 1.529-1.18 1.01-1.56-0.72-0.53-5.405-7.58-5.51-8.3-0.068-0.46-0.198-0.7-0.516-0.71zm166.18 0.22c-0.45 0.04-0.87 0.18-1.13 0.45-0.67 0.67-0.58 2.28 0.18 3.12 0.88 0.98 2.31 0.9 3.05-0.15 0.79-1.12 0.77-1.83-0.04-2.73-0.46-0.51-1.31-0.75-2.06-0.69zm10.8 1.34c-0.11 0-0.2 0.03-0.25 0.09-0.15 0.17-1.38 1.96-2.72 3.97-2.39 3.59-2.72 4.64-1.16 3.66 0.91-0.56 0.57-0.71 5.76 2.63 3.42 2.21 4.02 2.75 3.97 3.58-0.02 0.54-0.03 1.11 0 1.27 0.02 0.16 0.12 0.3 0.23 0.3 0.34 0 5.69-8.21 5.69-8.74 0-0.29-0.53-1.04-1.18-1.66-0.86-0.82-1.29-1.01-1.61-0.69s-0.27 0.68 0.2 1.34c0.86 1.24 0.8 1.87-0.38 3.6l-1 1.47-1.45-0.86c-0.79-0.47-1.76-1.15-2.14-1.51-0.68-0.62-0.67-0.69 0.15-1.73 0.64-0.83 1.07-1.03 1.78-0.85 1.65 0.41 1.05-0.82-1.02-2.09-1.97-1.21-3.04-1.05-1.84 0.28 0.55 0.61 0.53 0.79-0.2 1.94-0.78 1.24-0.82 1.25-1.86 0.63-0.59-0.34-1.46-0.92-1.93-1.27l-0.86-0.65 1.02-1.51c0.94-1.37 1.14-1.48 2.36-1.25 0.99 0.19 1.33 0.11 1.33-0.28 0-0.57-2.1-1.69-2.89-1.67zm-162.67 2.22c-0.284-0.01-0.568 0.11-1.031 0.37-1.257 0.71-1.534 2.12-0.614 3.14 0.764 0.84 2.512 0.99 3.227 0.28 0.848-0.85 0.557-2.59-0.555-3.32-0.459-0.3-0.743-0.46-1.027-0.47zm149.77 0.37c-0.83-0.01-1.78 0.43-2.21 1.2-0.52 0.92-0.5 1.14 0.1 2.06 0.76 1.17 2.59 1.4 3.4 0.43 0.63-0.76 0.62-2.38-0.02-3.15-0.3-0.36-0.76-0.53-1.27-0.54zm-146.67 3.5c-1.879 0-2.84 2.19-1.574 3.59 1.215 1.35 3.664 0.43 3.664-1.37 0-1.05-1.104-2.22-2.09-2.22zm143.18 0.39c-1.55 0-2.6 1.62-1.89 2.94 0.28 0.52 0.79 1.02 1.13 1.11 0.35 0.1 0.67 0.19 0.71 0.22 0.04 0.02 0.52-0.13 1.08-0.34 0.8-0.3 1-0.65 1-1.69 0-1.58-0.59-2.24-2.03-2.24zm11.03 2.14c-0.33-0.2-3.51 3.24-3.51 3.8 0 0.48 0.94 0.41 1.47-0.12 0.5-0.5 2.08 0.46 4.97 3.01l1.53 1.36-6.04 0.03-6.05 0.03-1.1 1.33c-0.61 0.74-0.99 1.53-0.84 1.77 0.19 0.32 0.39 0.32 0.69 0.02 0.91-0.91 2.17-0.3 5.7 2.77 3.29 2.86 3.65 3.29 3.45 4.25-0.12 0.6-0.09 1.21 0.06 1.36 0.33 0.32 3.59-3.3 3.6-4.01 0.01-0.58-0.63-0.65-0.97-0.1-0.52 0.85-1.72 0.29-4.72-2.21l-3.12-2.61 6.47 0.25c4.03 0.15 6.69 0.1 7.06-0.15 0.64-0.42 0.96-0.08-5.46-5.82-2.67-2.39-3.21-3.07-3.06-3.84 0.1-0.51 0.04-1.01-0.13-1.12zm-165.16 0.26c-0.256-0.1-0.32 0.29-0.171 1.03 0.219 1.1 0.009 1.37-2.967 3.87-5.318 4.47-4.984 4.26-5.869 3.71-1.905-1.19-1.188 0.46 1.736 3.99 1.742 2.1 3.313 3.82 3.492 3.82 0.792 0 3.098-1.37 3.098-1.84 0-0.39-0.398-0.46-1.547-0.27-1.401 0.22-1.663 0.12-2.746-1.07-0.659-0.72-1.196-1.51-1.196-1.76s0.819-1.13 1.821-1.95l1.822-1.49 0.898 1.13c0.705 0.88 0.811 1.28 0.495 1.88-0.222 0.41-0.255 0.9-0.073 1.08 0.454 0.46 3.846-2.55 3.504-3.1-0.198-0.32-0.463-0.31-0.994 0.02-0.75 0.47-1.016 0.31-2.293-1.32-0.438-0.56-0.264-0.84 1.301-2.12l1.809-1.48 0.937 1.14c1.032 1.27 1.222 2.5 0.496 3.23-0.297 0.3-0.332 0.61-0.098 0.84 0.233 0.23 0.878-0.05 1.721-0.74l1.348-1.1-3.059-3.68c-1.682-2.02-3.241-3.74-3.465-3.82zm14.627 1.04c-0.265-0.02-0.579 0-0.957 0.03-0.805 0.07-1.771 1.12-1.791 1.94-0.007 0.28 0.409 0.93 0.924 1.44 1.101 1.1 2.341 0.96 3.219-0.38 0.466-0.72 0.488-1.08 0.109-1.91-0.343-0.76-0.707-1.07-1.504-1.12zm136.3 0.09c-1.87 0-2.84 2.19-1.57 3.59 1.21 1.35 3.66 0.43 3.66-1.37 0-1.05-1.1-2.22-2.09-2.22zm-133.09 3.23c-1.597-0.13-3.18 1.97-1.867 3.42 0.798 0.88 2.536 1.06 3.266 0.33 0.729-0.73 0.555-2.47-0.327-3.27-0.334-0.3-0.703-0.45-1.072-0.48zm129.37 0.35c-0.45 0.04-0.91 0.23-1.31 0.6-0.89 0.8-0.92 2-0.07 2.94 1.25 1.39 3.67 0.42 3.67-1.47 0-1.17-0.85-1.96-1.84-2.07-0.14-0.02-0.29-0.02-0.45 0zm-126.33 3.09c-0.414 0.03-0.799 0.17-1.09 0.46-0.672 0.68-0.581 2.29 0.178 3.13 0.357 0.39 0.975 0.72 1.373 0.72 0.903 0 2.291-1.35 2.291-2.23 0-1.24-1.508-2.18-2.752-2.08zm122.95 0.06c-0.47-0.02-0.96 0.14-1.41 0.54-0.86 0.77-1.02 2.52-0.3 3.24 0.84 0.83 2.6 0.55 3.31-0.53 0.99-1.51-0.2-3.19-1.6-3.25zm-118.22 3.08c-1.24-0.09-2.766 0.81-2.766 2 0 0.39 0.386 1.06 0.857 1.5 1.041 0.97 1.789 1.01 2.739 0.15 0.814-0.73 0.949-2.49 0.246-3.19-0.282-0.28-0.663-0.43-1.076-0.46zm114.43 0.07c-0.52-0.05-1.08 0.11-1.59 0.57-0.81 0.73-0.92 1.77-0.31 2.9 0.5 0.94 2.41 1.02 3.29 0.15 1.45-1.45 0.19-3.48-1.39-3.62zm-128.51 2.19c-0.402 0.01-0.465 0.47 0.002 1.21 0.419 0.68 0.257 1.03-1.295 2.86-3.297 3.88-4.256 5.45-4.256 6.96 0 3.37 3.744 6.05 7.142 5.11 1.051-0.29 2.231-1.28 4.446-3.72 1.658-1.82 3.267-3.32 3.574-3.32 0.596 0 2.482 1.71 2.482 2.25 0 0.44-4.235 7.57-5.021 8.46-0.415 0.46-0.937 0.63-1.529 0.48-1.704-0.43-0.961 0.87 1.207 2.11 1.158 0.67 2.218 1.21 2.353 1.21 0.507 0 0.222-0.91-0.439-1.4-0.648-0.48-0.637-0.61 0.207-2.2 0.491-0.93 1.47-2.62 2.173-3.75l1.28-2.06 0.898 6.36c0.495 3.51 0.984 6.51 1.086 6.67 0.463 0.75 1.221 0.1 2.49-2.14 0.755-1.33 2.21-3.71 3.233-5.29 1.669-2.58 1.961-2.85 2.844-2.63 1.603 0.41 1.151-0.51-0.881-1.79-1.886-1.18-2.842-1.46-2.842-0.84 0 0.19 0.264 0.57 0.588 0.83 0.323 0.27 0.588 0.61 0.588 0.74 0 0.14-0.865 1.72-1.922 3.51-1.81 3.08-1.936 3.2-2.149 2.16-0.214-1.05-1.81-10.66-1.81-10.89 0-0.06-1.016-0.74-2.256-1.52s-2.848-1.95-3.574-2.6c-1.492-1.34-2.375-1.22-1.45 0.19 0.582 0.89 0.516 1.04-1.679 3.8-2.575 3.24-3.853 4.23-5.438 4.21-1.266-0.01-2.136-0.59-2.82-1.88-0.697-1.3-0.067-2.8 2.525-5.97 2.829-3.45 3.169-3.73 3.873-3.14 0.424 0.35 0.622 0.34 0.844-0.02 0.277-0.44-0.802-1.55-3.428-3.5-0.443-0.33-0.806-0.48-1.046-0.46zm17.546 0.55c-0.511 0.02-1.041 0.22-1.505 0.69-1.016 1.01-1.022 1.77-0.024 2.76 1.083 1.09 2.582 1.01 3.356-0.17 1.074-1.64-0.293-3.32-1.827-3.28zm106.74 0.13c-1.82 0.05-2.89 2.66-1.14 3.89 1.15 0.81 1.72 0.77 2.66-0.17 1.26-1.26 0.93-2.96-0.7-3.57-0.28-0.11-0.56-0.16-0.82-0.15zm14.23 1.37l-1.55 1.27c-0.85 0.7-1.9 1.58-2.32 1.96-0.41 0.38-1.34 1.08-2.05 1.57-1.57 1.06-1.76 2.06-0.33 1.7 0.85-0.21 1.29 0.14 3.43 2.75 3.99 4.86 4.36 5.45 3.88 6.34-0.22 0.42-0.3 0.88-0.16 1.02 0.34 0.34 0.26 0.39 2.1-1.15 0.92-0.77 2.03-1.65 2.47-1.96 0.61-0.43 0.7-0.67 0.35-1.02s-0.62-0.32-1.12 0.09c-0.58 0.49-0.85 0.33-2.38-1.41l-1.73-1.95 1.1-0.88c1.18-0.95 2.26-1.14 2.68-0.46 0.18 0.29 0.39 0.3 0.66 0.03s-0.08-0.98-1.08-2.2c-1.56-1.9-1.96-1.96-1.96-0.33 0 0.64-0.4 1.3-1.1 1.83l-1.09 0.82-1.34-1.56c-0.74-0.86-1.34-1.77-1.35-2.03-0.02-0.7 2.28-2.19 3.04-1.97 0.37 0.1 0.98 0.32 1.35 0.47 1.09 0.45 0.84-0.68-0.4-1.88l-1.1-1.05zm-116.81 1.17c-2.03 0-2.919 2.56-1.285 3.7 0.479 0.34 1.057 0.61 1.285 0.61 0.227 0 0.806-0.27 1.285-0.61 1.633-1.14 0.745-3.7-1.285-3.7zm98.454 0.21c-1.68-0.02-3.01 2.05-1.58 3.49 0.73 0.73 2.56 0.81 3.23 0.14 0.81-0.81 0.56-2.59-0.46-3.25-0.39-0.26-0.8-0.38-1.19-0.38zm-94.245 2.2c-0.284 0.01-0.568 0.16-1.028 0.47-1.171 0.76-1.36 2.22-0.41 3.17 0.339 0.34 1.033 0.62 1.541 0.62 2.204 0 2.873-2.8 0.928-3.89-0.463-0.26-0.747-0.38-1.031-0.37zm90.135 0.32c-0.67-0.03-1.35 0.27-1.79 0.89-0.81 1.15-0.77 1.71 0.2 2.68 1.03 1.03 2.24 0.85 3.23-0.49 0.75-1.01 0.76-1.11 0.13-2.06-0.42-0.65-1.1-1-1.77-1.02zm-85.393 1.99c-0.59-0.04-1.231 0.15-1.766 0.63-0.891 0.81-0.917 2.01-0.066 2.95 1.372 1.52 3.664 0.48 3.664-1.65 0-1.13-0.848-1.86-1.832-1.93zm81.013 0.09c-0.3-0.03-0.59 0.05-0.98 0.23-0.54 0.24-1.08 0.71-1.21 1.03-0.38 0.99 0.18 2.41 1.13 2.83 2.49 1.13 4.34-2.15 2.05-3.65-0.4-0.27-0.7-0.41-0.99-0.44zm-76.664 1.85c-1.838 0.04-3.081 2.56-1.435 3.83 1.755 1.35 4.196-0.49 3.289-2.48-0.244-0.54-0.711-1.08-1.037-1.2-0.28-0.11-0.554-0.15-0.817-0.15zm72.314 0.23c-0.13-0.01-0.25-0.01-0.38 0-0.33 0.04-0.67 0.16-0.98 0.36-1.23 0.81-1.26 2.67-0.06 3.51 1.13 0.79 1.24 0.78 2.5-0.3 0.85-0.74 1.01-1.12 0.79-1.98-0.23-0.94-1.01-1.53-1.87-1.59zm20.61 1c-0.84-0.01-1.71 0.15-2.56 0.52-6.25 2.67-6.06 11.45 0.3 13.77 4.22 1.54 9.15-1.99 9.16-6.54 0-4.41-3.24-7.71-6.9-7.75zm-26.02 0.72c-0.42 0.03-0.81 0.18-1.12 0.49-0.67 0.67-0.58 2.28 0.18 3.12 1.22 1.35 3.67 0.43 3.67-1.37 0-1.33-1.48-2.33-2.73-2.24zm-61.931 0.04c-1.233-0.09-2.785 0.76-2.785 1.87 0 0.33 0.383 1.01 0.852 1.51 1.008 1.08 1.765 1.15 2.744 0.26 0.814-0.74 0.949-2.49 0.246-3.19-0.271-0.27-0.646-0.41-1.057-0.45zm86.381 1.2c1.92 0.07 4.07 1.79 5.56 4.72 1.28 2.53 1.22 3.68-0.27 5.08-0.73 0.68-1.65 1.13-2.3 1.13-2.57 0-5.88-3.78-6.2-7.08-0.16-1.63-0.04-2.01 0.83-2.89 0.69-0.68 1.51-0.99 2.38-0.96zm-43.09 3.48c-2.13 0-3 2.5-1.29 3.7 1.15 0.81 1.71 0.77 2.66-0.17 1.5-1.5 0.71-3.53-1.37-3.53zm-20.11 0.4c-0.46 0.02-0.89 0.17-1.18 0.46-0.68 0.68-0.59 2.29 0.17 3.13 0.85 0.94 1.91 0.91 2.88-0.07 0.95-0.94 0.98-1.5 0.18-2.66-0.42-0.6-1.28-0.91-2.05-0.86zm14.9 0c-0.46 0.02-0.89 0.17-1.19 0.46-0.72 0.73-0.58 2.96 0.22 3.42 1.06 0.62 1.98 0.5 2.84-0.36 0.95-0.94 0.98-1.5 0.18-2.66-0.42-0.6-1.28-0.91-2.05-0.86zm-4.74 0.2c-1.83 0.05-2.9 2.66-1.14 3.89 1.15 0.81 1.71 0.77 2.66-0.17 1.26-1.26 0.93-2.96-0.7-3.58-0.28-0.1-0.56-0.15-0.82-0.14zm-4.75 0.01c-0.86-0.01-1.85 0.47-2.11 1.16-0.39 1.02 0.12 2.41 1.05 2.86 1.1 0.53 0.99 0.53 1.85 0.07 1.77-0.95 1.77-2.96 0-3.9-0.23-0.13-0.5-0.19-0.79-0.19zm-43.448 0.09c-0.459-0.02-0.442 0.26 0.088 0.84 0.337 0.37 0.613 0.79 0.613 0.93s-0.997 2.38-2.215 4.97c-1.884 4.01-2.349 4.72-3.113 4.72-1.741 0-1.315 0.72 1.111 1.89 1.349 0.65 2.672 1.19 2.942 1.21 0.585 0.04 0.651-0.6 0.097-0.95-0.738-0.45-0.389-1.7 1.742-6.24 1.905-4.05 2.241-4.54 3.137-4.54 1.665 0 1.146-0.59-1.639-1.86-1.37-0.62-2.304-0.95-2.763-0.97zm86.668 2.05c-0.16 0-1.17 0.33-2.24 0.74-2.16 0.82-2.77 1.61-1.24 1.61 0.97 0 0.99 0.05 0.76 2.06-0.36 3.21-0.52 3.31-2.58 1.6-1.71-1.42-2.33-2.48-1.46-2.48 0.21 0 0.39-0.28 0.39-0.62 0-0.67-0.38-0.6-3.51 0.61-1.9 0.74-2.54 1.57-1.21 1.57 0.45 0 2.15 1.11 3.77 2.46 2.51 2.1 3.02 2.74 3.58 4.5 0.6 1.91 0.6 2.09-0.01 2.77-0.36 0.4-0.66 0.84-0.66 0.99 0 0.42 0.42 0.33 3.43-0.77 1.66-0.6 2.84-1.26 2.84-1.58 0-0.38-0.28-0.47-0.97-0.29-0.87 0.22-1.07 0.04-1.82-1.66-0.46-1.05-0.84-2.5-0.83-3.22 0.03-2.17 0.94-6.34 1.52-6.91 0.58-0.58 0.72-1.38 0.24-1.38zm-80.535 0.92c-0.417 0.06-0.325 0.4 0.238 1.02 0.59 0.65 0.726 1.74 0.877 6.96 0.098 3.41 0.247 6.41 0.332 6.68 0.345 1.1 1.377 0.26 5.453-4.43 3.088-3.56 4.583-4.99 5.383-5.15 0.608-0.12 1.105-0.36 1.105-0.53 0-0.54-4.665-1.93-4.949-1.47-0.141 0.23 0.031 0.57 0.385 0.77s0.644 0.51 0.644 0.69c0 0.17-1.236 1.86-2.746 3.75l-2.744 3.43-0.076-3.38c-0.042-1.86-0.086-3.96-0.098-4.66-0.017-1 0.139-1.27 0.729-1.27 1.727 0 0.844-0.9-1.721-1.76-1.47-0.49-2.396-0.71-2.812-0.65zm67.475 3.03c-0.1 0.01-0.21 0.1-0.31 0.27-0.38 0.61-8.93 2.54-9.9 2.24-0.67-0.22-0.72-0.08-0.49 1.65 0.28 2.17 0.77 2.95 1.32 2.08 0.21-0.32 0.38-0.9 0.38-1.28 0.01-0.77 1.62-1.68 2.44-1.37 0.29 0.11 0.76 1.33 1.05 2.7 0.3 1.38 0.78 3.46 1.08 4.64 0.72 2.89 0.68 3.58-0.25 3.82-0.77 0.21-0.99 0.57-0.57 0.98 0.35 0.35 6.19-1.06 6.35-1.54 0.08-0.24-0.35-0.5-0.95-0.57-1.17-0.14-1.19-0.18-2.99-7.95-0.7-2.99-0.56-3.33 1.35-3.34 0.68-0.01 1.26 0.33 1.7 1.01 0.95 1.44 1.45 0.68 0.87-1.29-0.42-1.43-0.76-2.09-1.08-2.05zm-52.79 1.54c-1.112 0-1.189 0.64-0.121 0.98 0.431 0.13 0.781 0.42 0.781 0.62 0 0.67-2.007 10.34-2.181 10.52-0.092 0.09-0.555 0.19-1.028 0.23-1.682 0.12-1.127 0.92 0.936 1.34 1.144 0.23 3.223 0.67 4.633 0.97 3.74 0.81 3.73 0.81 4.44-1.02 0.77-1.96 0.31-2.75-0.8-1.35-0.81 1.03-1.18 1.16-3.05 1.08-2.15-0.1-2.35-0.45-1.77-3.16l0.51-2.41 1.21 0.26c1.64 0.35 1.81 0.48 1.81 1.37 0 1.52 1.1 0.79 1.37-0.91 0.14-0.91 0.34-1.97 0.45-2.35 0.26-0.91-0.72-0.89-1.29 0.03-0.34 0.53-0.8 0.67-1.88 0.54-1.58-0.18-1.5 0.15-0.77-3.64 0.23-1.16 0.3-1.2 1.67-0.95 1.81 0.34 2.41 0.84 2.41 2.01 0 1.61 1.08 1.09 1.38-0.66 0.15-0.88 0.21-1.65 0.13-1.73-0.25-0.23-7.92-1.77-8.84-1.77zm40.01 1.62c-0.17 0.01-0.37 0.03-0.63 0.08-0.7 0.12-2.12 0.34-3.15 0.48-1.9 0.27-2.36 1.03-0.76 1.27 0.93 0.14 1.05 0.56 1.65 5.55 0.56 4.67 0.52 5.9-0.19 5.9-0.32 0-0.58 0.27-0.58 0.61 0 0.52 0.35 0.58 2.25 0.36 1.24-0.14 2.56-0.34 2.94-0.44 0.83-0.23 0.92-0.93 0.11-0.93-0.92 0-1.3-1.16-1.78-5.49-0.24-2.25-0.53-4.22-0.64-4.4-0.33-0.54 0.28-1.87 0.87-1.87 0.31 0 0.56-0.28 0.56-0.63 0-0.37-0.15-0.52-0.65-0.49zm-27.21 0.65c-1.02 0.03-1.76 0.13-1.83 0.32-0.08 0.24 0.24 0.54 0.71 0.67 0.84 0.22 0.86 0.33 0.59 4.26-0.4 5.96-0.62 7.06-1.48 7.28-0.41 0.11-0.68 0.39-0.6 0.64 0.15 0.46 5.77 0.87 5.77 0.42 0-0.14-0.37-0.55-0.81-0.91-0.71-0.57-0.78-0.91-0.54-2.72 0.15-1.14 0.45-2.01 0.67-1.94s1.03 1.33 1.81 2.8c0.78 1.46 1.86 2.9 2.39 3.2 0.97 0.53 3.14 0.77 3.14 0.35 0-0.12-0.5-0.87-1.12-1.67-0.62-0.79-1.54-2.2-2.04-3.12l-0.91-1.67 1.27-1.07c2.54-2.15 1.78-5.5-1.44-6.33-1.4-0.36-3.88-0.55-5.58-0.51zm16.99 0.12c-2.73-0.04-4.82 1.64-4.82 4.08 0 1.83 1.08 3.1 3.64 4.27 2.61 1.19 3.34 3.54 1.4 4.58-1.1 0.59-2.74-0.14-3.61-1.62-1.02-1.72-1.92-1.55-1.59 0.31 0.34 1.86 0.45 2.04 1.48 2.46 2.51 1.01 6.15-0.14 6.93-2.19 1.04-2.74 0.04-4.59-3.32-6.18-2.48-1.18-3.16-2.49-1.97-3.81 1.02-1.13 1.97-0.94 3.16 0.62 1.24 1.63 1.8 1.35 1.47-0.7-0.21-1.28-0.4-1.48-1.57-1.7-0.41-0.08-0.82-0.12-1.2-0.12zm-13.81 1.1c0.34-0.04 0.81 0.19 1.46 0.65 0.98 0.69 1.19 3.04 0.36 4.13-0.59 0.78-1.89 1.22-2.46 0.83-0.27-0.17-0.36-1.27-0.25-2.93 0.12-1.8 0.33-2.62 0.89-2.68z"/>
 </g>
</svg>
